<?xml version="1.0" encoding="UTF-8" standalone="no"?> <!-- Created with Vectornator for iOS (http://vectornator.io/) --><!DOCTYPE svg PUBLIC "-//W3C//DTD SVG 1.1//EN" "http://www.w3.org/Graphics/SVG/1.1/DTD/svg11.dtd">
<svg height="100%" style="fill-rule:evenodd;clip-rule:evenodd;stroke-linecap:round;stroke-linejoin:round;" xmlns:xlink="http://www.w3.org/1999/xlink" xmlns="http://www.w3.org/2000/svg" xml:space="preserve" width="100%" xmlns:vectornator="http://vectornator.io" version="1.1" viewBox="0 0 513.246 517.325">
<metadata>
<vectornator:setting key="DisplayWhiteBackground" value="0"/>
<vectornator:setting key="RulersVisible" value="1"/>
<vectornator:setting key="Units" value="Points"/>
<vectornator:setting key="DynamicGuides" value="1"/>
<vectornator:setting key="GuidesVisible" value="1"/>
<vectornator:setting key="CMYKEnabledKey" value="0"/>
<vectornator:setting key="SnapToGuides" value="0"/>
<vectornator:setting key="GridSpacing" value="36"/>
</metadata>
<defs>
<linearGradient y1="366.956" id="LinearGradient" x1="210.439" y2="477.913" x2="210.439" gradientUnits="userSpaceOnUse" gradientTransform="matrix(1 0 0 1.0515 7 -103.868)">
<stop stop-color="#2e4aa4" offset="0"/>
<stop stop-color="#1f3888" offset="1"/>
</linearGradient>
<radialGradient cx="187.552" r="7.43287e-06" id="RadialGradient" gradientUnits="userSpaceOnUse" gradientTransform="matrix(1 0 0 1 8 -3)" cy="294.737">
<stop stop-color="#2e4aa4" offset="0"/>
<stop stop-color="#1f3888" offset="1"/>
</radialGradient>
<radialGradient cx="85.5286" r="2.35862" id="RadialGradient_2" gradientUnits="userSpaceOnUse" gradientTransform="matrix(1 0 0 1 8 -3)" cy="327.477">
<stop stop-color="#2e4aa4" offset="0"/>
<stop stop-color="#1f3888" offset="1"/>
</radialGradient>
<radialGradient cx="90.2874" r="1.74264" id="RadialGradient_3" gradientUnits="userSpaceOnUse" gradientTransform="matrix(1 0 0 1 0 0)" cy="338.559">
<stop stop-color="#26429e" offset="0"/>
<stop stop-color="#000462" offset="1"/>
</radialGradient>
</defs>
<g id="D" vectornator:layerName="D">
<path d="M347.107+285.567C335.723+220.665+289.378+171.799+233.625+171.219L203.188+170.938C138.506+170.264+85.6355+234.802+85.0938+315.094C85.0798+317.158+85.2147+319.155+85.3125+321.188C85.3381+321.181+85.3479+321.159+85.375+321.156C85.74+321.081+85.9446+321.146+86.2188+321.25C86.2896+321.277+86.3519+321.305+86.4375+321.344C86.4954+321.372+86.5209+321.425+86.5625+321.469C86.645+321.445+86.7162+321.4+86.8125+321.406C88.0307+321.457+88.9421+321.457+89.75+321.312C90.0563+321.259+90.3271+321.372+90.5938+321.5C90.844+321.306+91.1143+321.103+91.4062+321.094C91.7898+321.074+92.1613+321.206+92.4688+321.5C92.4874+321.518+92.4818+321.544+92.5+321.562C92.9912+321.559+93.5495+321.576+94.1875+321.562C94.4215+321.437+94.6529+321.288+94.9375+321.312C96.4878+321.449+221.718+321.428+221.969+321.406M193.814+283.823C185.193+283.796+179.097+283.778+179.094+283.781C178.316+284.167+157.875+283.938+157.875+283.938C157.875+283.938+158.203+278.61+157.938+278.188C157.801+278.161+157.875+273.755+157.875+271.979C157.875+271.151+159.097+265.946+159.25+266C159.492+266.021+160.615+262.062+162.594+258.188C164.329+254.789+166.841+251.571+168.219+249.531C170.229+246.556+172.788+244.155+174.281+242.406C175.702+240.743+179.597+237.824+183.206+235.916C184.414+235.276+190.331+232.139+197.036+230.337C203.352+228.64+210.44+228.257+212.688+228.188C212.86+228.161+219.917+228.206+220.094+228.188C222.307+227.949+231.069+228.746+233.094+229.281C234.781+229.727+241.721+230.762+247.312+233.656C250.655+235.65+260.898+242.472+262.25+244.219C262.723+244.829+269.604+254.101+269.938+254.75C270.881+255.438+272.822+259.331+272.844+259.375C273.183+260.054+273.521+260.818+273.844+261.625C275.095+264.749+276.126+268.563+276.188+271.031C276.228+271.055+276.281+271.073+276.281+271.125C276.281+271.636+276.326+272.062+276.469+273.156C276.51+273.471+276.54+273.65+276.562+273.844C276.599+274.153+276.575+274.351+276.594+274.625C276.595+274.742+276.625+274.751+276.625+274.875C276.625+274.892+276.609+274.9+276.594+274.906C276.6+275.053+276.625+275.206+276.625+275.344C276.635+275.407+276.656+275.457+276.656+275.531C276.656+275.583+276.655+275.963+276.656+276.094C276.66+276.63+276.679+277.577+276.688+278.406C276.761+278.93+276.776+279.496+276.781+279.938C276.851+279.968+276.937+279.985+276.938+280.062C276.938+280.206+276.877+280.697+276.875+280.75C276.858+281.043+276.864+281.248+276.906+281.406C276.939+281.531+276.826+281.599+276.75+281.688C276.752+281.72+276.753+281.745+276.75+281.781C276.82+281.845+276.932+281.88+276.906+282C276.714+282.327+277.075+283.905+276.969+283.938C276.901+283.946+250.26+283.907+250.156+283.938C249.946+283.993+214.566+283.886+193.814+283.823M221.969+321.406C222.933+321.324+247.353+321.683+248.156+321.594C252.849+321.069+313.681+321.742+313.688+321.75C313.842+321.74+348.862+321.472+349.562+322C349.646+320.625+349.773+319.243+349.781+317.844C349.856+306.762+348.93+295.959+347.107+285.567" opacity="1" fill="url(#LinearGradient)"/>
<path d="M195.552+291.737" opacity="1" fill="url(#RadialGradient)"/>
<path d="M91.17+320.164L95.8872+328.79L91.17+320.164Z" opacity="1" fill="url(#RadialGradient_2)"/>
</g>
<g id="Sombra TP" vectornator:layerName="Sombra TP" visibility="hidden">
<path d="M65.7718+160.274L73.1877+160.274L73.1877+160.274L65.7718+160.274Z" opacity="1" fill="#a78108"/>
<path d="M363.348+234.774L412.964+234.774C420.49+234.774+426.591+241.49+426.591+249.774L426.591+319.043C426.591+327.327+420.49+334.043+412.964+334.043L363.348+334.043C355.822+334.043+349.721+327.327+349.721+319.043L349.721+249.774C349.721+241.49+355.822+234.774+363.348+234.774Z" opacity="1" fill="#a78108"/>
<path d="M55.3668+338.559L497.359+338.559C505.643+338.559+512.359+345.274+512.359+353.559L512.359+422.551C512.359+430.835+505.643+437.551+497.359+437.551L55.3668+437.551C47.0826+437.551+40.3668+430.835+40.3668+422.551L40.3668+353.559C40.3668+345.274+47.0826+338.559+55.3668+338.559Z" opacity="1" fill="#a78108"/>
<path d="M29.16+413.763L75.2874+413.763C83.5717+413.763+90.2874+420.478+90.2874+428.763L90.2874+476.764C90.2874+485.048+83.5717+491.764+75.2874+491.764L29.16+491.764C20.8757+491.764+14.16+485.048+14.16+476.764L14.16+428.763C14.16+420.478+20.8757+413.763+29.16+413.763Z" opacity="1" fill="#a78108"/>
</g>
<g id="Capa 1" vectornator:layerName="Capa 1" visibility="hidden">
<path d="M4.05576+316.225L494.27+316.225C496.51+316.225+498.326+318.04+498.326+320.279L498.326+413.563C498.326+415.804+496.51+417.619+494.27+417.619L4.05576+417.619C1.81583+417.619+0+415.804+0+413.563L0+320.279C0+318.04+1.81584+316.225+4.05576+316.225Z" fill-rule="evenodd" fill="#ffc200" opacity="1"/>
<path d="M442.452+364.118L442.452+364.118L442.452+364.672L442.452+364.672L442.452+364.118Z" opacity="1" fill="#a78108"/>
</g>
<g id="Capa 2" vectornator:layerName="Capa 2">
<g opacity="0">
<path d="M53.0034+515.422L45.2964+507.715L45.2964+480.422L72.5893+480.422L80.2964+488.129L80.2964+515.422L53.0034+515.422Z" opacity="1" fill="#a78108"/>
<path d="M72.3823+480.922L79.7964+488.336L79.7964+514.922L53.2104+514.922L45.7964+507.508L45.7964+480.922L72.3823+480.922M72.7964+479.922L44.7964+479.922L44.7964+507.922L52.7964+515.922L80.7964+515.922L80.7964+487.922L72.7964+479.922Z" opacity="1" fill="#a78108"/>
<path stroke="#a78108" stroke-width="1" d="M45.2964+480.422L53.2964+488.422" fill="#ffc200" stroke-linecap="butt" opacity="1" stroke-linejoin="miter"/>
<path d="M53.2964+488.422L80.2964+488.422L80.2964+515.422L53.2964+515.422L53.2964+488.422Z" opacity="1" fill="#ffc200"/>
<path d="M79.7964+488.922L79.7964+514.922L53.7964+514.922L53.7964+488.922L79.7964+488.922M80.7964+487.922L52.7964+487.922L52.7964+515.922L80.7964+515.922L80.7964+487.922Z" opacity="1" fill="#ffc200"/>
</g>
<g opacity="0">
<path d="M16.4107+515.422L8.70363+507.715L8.70363+480.422L35.9966+480.422L43.7036+488.129L43.7036+515.422L16.4107+515.422Z" opacity="1" fill="#a78108"/>
<path d="M35.7896+480.922L43.2036+488.336L43.2036+514.922L16.6177+514.922L9.20363+507.508L9.20363+480.922L35.7896+480.922M36.2036+479.922L8.20363+479.922L8.20363+507.922L16.2036+515.922L44.2036+515.922L44.2036+487.922L36.2036+479.922Z" opacity="1" fill="#a78108"/>
<path stroke="#a78108" stroke-width="1" d="M8.70363+480.422L16.7036+488.422" fill="#ffc200" stroke-linecap="butt" opacity="1" stroke-linejoin="miter"/>
<path d="M16.7036+488.422L43.7036+488.422L43.7036+515.422L16.7036+515.422L16.7036+488.422Z" opacity="1" fill="#ffc200"/>
<path d="M43.2036+488.922L43.2036+514.922L17.2036+514.922L17.2036+488.922L43.2036+488.922M44.2036+487.922L16.2036+487.922L16.2036+515.922L44.2036+515.922L44.2036+487.922Z" opacity="1" fill="#ffc200"/>
</g>
<g opacity="1">
<path d="M61.0034+480.422L53.2964+472.715L53.2964+445.422L80.5893+445.422L88.2964+453.129L88.2964+480.422L61.0034+480.422Z" opacity="1" fill="#a78108"/>
<path d="M80.3823+445.922L87.7964+453.336L87.7964+479.922L61.2104+479.922L53.7964+472.508L53.7964+445.922L80.3823+445.922M80.7964+444.922L52.7964+444.922L52.7964+472.922L60.7964+480.922L88.7964+480.922L88.7964+452.922L80.7964+444.922Z" opacity="1" fill="#a78108"/>
<path stroke="#a78108" stroke-width="1" d="M53.2964+445.422L61.2964+453.422" fill="#ffc200" stroke-linecap="butt" opacity="1" stroke-linejoin="miter"/>
<path d="M61.2964+453.422L88.2964+453.422L88.2964+480.422L61.2964+480.422L61.2964+453.422Z" opacity="1" fill="#ffc200"/>
<path d="M87.7964+453.922L87.7964+479.922L61.7964+479.922L61.7964+453.922L87.7964+453.922M88.7964+452.922L60.7964+452.922L60.7964+480.922L88.7964+480.922L88.7964+452.922Z" opacity="1" fill="#ffc200"/>
</g>
<g opacity="1">
<path d="M24.4107+480.422L16.7036+472.715L16.7036+445.422L43.9966+445.422L51.7036+453.129L51.7036+480.422L24.4107+480.422Z" opacity="1" fill="#a78108"/>
<path d="M43.7896+445.922L51.2036+453.336L51.2036+479.922L24.6177+479.922L17.2036+472.508L17.2036+445.922L43.7896+445.922M44.2036+444.922L16.2036+444.922L16.2036+472.922L24.2036+480.922L52.2036+480.922L52.2036+452.922L44.2036+444.922Z" opacity="1" fill="#a78108"/>
<path stroke="#a78108" stroke-width="1" d="M16.7036+445.422L24.7036+453.422" fill="#ffc200" stroke-linecap="butt" opacity="1" stroke-linejoin="miter"/>
<path d="M24.7036+453.422L51.7036+453.422L51.7036+480.422L24.7036+480.422L24.7036+453.422Z" opacity="1" fill="#ffc200"/>
<path d="M51.2036+453.922L51.2036+479.922L25.2036+479.922L25.2036+453.922L51.2036+453.922M52.2036+452.922L24.2036+452.922L24.2036+480.922L52.2036+480.922L52.2036+452.922Z" opacity="1" fill="#ffc200"/>
</g>
<g opacity="1">
<path d="M61.0034+448.422L53.2964+440.715L53.2964+413.422L80.5893+413.422L88.2964+421.129L88.2964+448.422L61.0034+448.422Z" opacity="1" fill="#a78108"/>
<path d="M80.3823+413.922L87.7964+421.336L87.7964+447.922L61.2104+447.922L53.7964+440.508L53.7964+413.922L80.3823+413.922M80.7964+412.922L52.7964+412.922L52.7964+440.922L60.7964+448.922L88.7964+448.922L88.7964+420.922L80.7964+412.922Z" opacity="1" fill="#a78108"/>
<path stroke="#a78108" stroke-width="1" d="M53.2964+413.422L61.2964+421.422" fill="#ffc200" stroke-linecap="butt" opacity="1" stroke-linejoin="miter"/>
<path d="M61.2964+421.422L88.2964+421.422L88.2964+448.422L61.2964+448.422L61.2964+421.422Z" opacity="1" fill="#ffc200"/>
<path d="M87.7964+421.922L87.7964+447.922L61.7964+447.922L61.7964+421.922L87.7964+421.922M88.7964+420.922L60.7964+420.922L60.7964+448.922L88.7964+448.922L88.7964+420.922Z" opacity="1" fill="#ffc200"/>
</g>
<g opacity="1">
<path d="M24.4107+448.422L16.7036+440.715L16.7036+413.422L43.9966+413.422L51.7036+421.129L51.7036+448.422L24.4107+448.422Z" opacity="1" fill="#a78108"/>
<path d="M43.7896+413.922L51.2036+421.336L51.2036+447.922L24.6177+447.922L17.2036+440.508L17.2036+413.922L43.7896+413.922M44.2036+412.922L16.2036+412.922L16.2036+440.922L24.2036+448.922L52.2036+448.922L52.2036+420.922L44.2036+412.922Z" opacity="1" fill="#a78108"/>
<path stroke="#a78108" stroke-width="1" d="M16.7036+413.422L24.7036+421.422" fill="#ffc200" stroke-linecap="butt" opacity="1" stroke-linejoin="miter"/>
<path d="M24.7036+421.422L51.7036+421.422L51.7036+448.422L24.7036+448.422L24.7036+421.422Z" opacity="1" fill="#ffc200"/>
<path d="M51.2036+421.922L51.2036+447.922L25.2036+447.922L25.2036+421.922L51.2036+421.922M52.2036+420.922L24.2036+420.922L24.2036+448.922L52.2036+448.922L52.2036+420.922Z" opacity="1" fill="#ffc200"/>
</g>
<g opacity="1">
<path d="M61.0034+416.422L53.2964+408.715L53.2964+381.422L80.5893+381.422L88.2964+389.129L88.2964+416.422L61.0034+416.422Z" opacity="1" fill="#a78108"/>
<path d="M80.3823+381.922L87.7964+389.336L87.7964+415.922L61.2104+415.922L53.7964+408.508L53.7964+381.922L80.3823+381.922M80.7964+380.922L52.7964+380.922L52.7964+408.922L60.7964+416.922L88.7964+416.922L88.7964+388.922L80.7964+380.922Z" opacity="1" fill="#a78108"/>
<path stroke="#a78108" stroke-width="1" d="M53.2964+381.422L61.2964+389.422" fill="#ffc200" stroke-linecap="butt" opacity="1" stroke-linejoin="miter"/>
<path d="M61.2964+389.422L88.2964+389.422L88.2964+416.422L61.2964+416.422L61.2964+389.422Z" opacity="1" fill="#ffc200"/>
<path d="M87.7964+389.922L87.7964+415.922L61.7964+415.922L61.7964+389.922L87.7964+389.922M88.7964+388.922L60.7964+388.922L60.7964+416.922L88.7964+416.922L88.7964+388.922Z" opacity="1" fill="#ffc200"/>
</g>
<g opacity="1">
<path d="M24.4107+416.422L16.7036+408.715L16.7036+381.422L43.9966+381.422L51.7036+389.129L51.7036+416.422L24.4107+416.422Z" opacity="1" fill="#a78108"/>
<path d="M43.7896+381.922L51.2036+389.336L51.2036+415.922L24.6177+415.922L17.2036+408.508L17.2036+381.922L43.7896+381.922M44.2036+380.922L16.2036+380.922L16.2036+408.922L24.2036+416.922L52.2036+416.922L52.2036+388.922L44.2036+380.922Z" opacity="1" fill="#a78108"/>
<path stroke="#a78108" stroke-width="1" d="M16.7036+381.422L24.7036+389.422" fill="#ffc200" stroke-linecap="butt" opacity="1" stroke-linejoin="miter"/>
<path d="M24.7036+389.422L51.7036+389.422L51.7036+416.422L24.7036+416.422L24.7036+389.422Z" opacity="1" fill="#ffc200"/>
<path d="M51.2036+389.922L51.2036+415.922L25.2036+415.922L25.2036+389.922L51.2036+389.922M52.2036+388.922L24.2036+388.922L24.2036+416.922L52.2036+416.922L52.2036+388.922Z" opacity="1" fill="#ffc200"/>
</g>
<g opacity="1">
<path d="M61.0034+384.422L53.2964+376.715L53.2964+349.422L80.5893+349.422L88.2964+357.129L88.2964+384.422L61.0034+384.422Z" opacity="1" fill="#a78108"/>
<path d="M80.3823+349.922L87.7964+357.336L87.7964+383.922L61.2104+383.922L53.7964+376.508L53.7964+349.922L80.3823+349.922M80.7964+348.922L52.7964+348.922L52.7964+376.922L60.7964+384.922L88.7964+384.922L88.7964+356.922L80.7964+348.922Z" opacity="1" fill="#a78108"/>
<path stroke="#a78108" stroke-width="1" d="M53.2964+349.422L61.2964+357.422" fill="#ffc200" stroke-linecap="butt" opacity="1" stroke-linejoin="miter"/>
<path d="M61.2964+357.422L88.2964+357.422L88.2964+384.422L61.2964+384.422L61.2964+357.422Z" opacity="1" fill="#ffc200"/>
<path d="M87.7964+357.922L87.7964+383.922L61.7964+383.922L61.7964+357.922L87.7964+357.922M88.7964+356.922L60.7964+356.922L60.7964+384.922L88.7964+384.922L88.7964+356.922Z" opacity="1" fill="#ffc200"/>
</g>
<g opacity="1">
<path d="M24.4107+384.422L16.7036+376.715L16.7036+349.422L43.9966+349.422L51.7036+357.129L51.7036+384.422L24.4107+384.422Z" opacity="1" fill="#a78108"/>
<path d="M43.7896+349.922L51.2036+357.336L51.2036+383.922L24.6177+383.922L17.2036+376.508L17.2036+349.922L43.7896+349.922M44.2036+348.922L16.2036+348.922L16.2036+376.922L24.2036+384.922L52.2036+384.922L52.2036+356.922L44.2036+348.922Z" opacity="1" fill="#a78108"/>
<path stroke="#a78108" stroke-width="1" d="M16.7036+349.422L24.7036+357.422" fill="#ffc200" stroke-linecap="butt" opacity="1" stroke-linejoin="miter"/>
<path d="M24.7036+357.422L51.7036+357.422L51.7036+384.422L24.7036+384.422L24.7036+357.422Z" opacity="1" fill="#ffc200"/>
<path d="M51.2036+357.922L51.2036+383.922L25.2036+383.922L25.2036+357.922L51.2036+357.922M52.2036+356.922L24.2036+356.922L24.2036+384.922L52.2036+384.922L52.2036+356.922Z" opacity="1" fill="#ffc200"/>
</g>
<g opacity="1">
<path d="M61.0034+352.422L53.2964+344.715L53.2964+317.422L80.5893+317.422L88.2964+325.129L88.2964+352.422L61.0034+352.422Z" opacity="1" fill="#a78108"/>
<path d="M80.3823+317.922L87.7964+325.336L87.7964+351.922L61.2104+351.922L53.7964+344.508L53.7964+317.922L80.3823+317.922M80.7964+316.922L52.7964+316.922L52.7964+344.922L60.7964+352.922L88.7964+352.922L88.7964+324.922L80.7964+316.922Z" opacity="1" fill="#a78108"/>
<path stroke="#a78108" stroke-width="1" d="M53.2964+317.422L61.2964+325.422" fill="#ffc200" stroke-linecap="butt" opacity="1" stroke-linejoin="miter"/>
<path d="M61.2964+325.422L88.2964+325.422L88.2964+352.422L61.2964+352.422L61.2964+325.422Z" opacity="1" fill="#ffc200"/>
<path d="M87.7964+325.922L87.7964+351.922L61.7964+351.922L61.7964+325.922L87.7964+325.922M88.7964+324.922L60.7964+324.922L60.7964+352.922L88.7964+352.922L88.7964+324.922Z" opacity="1" fill="#ffc200"/>
</g>
<g opacity="1">
<path d="M24.4107+352.422L16.7036+344.715L16.7036+317.422L43.9966+317.422L51.7036+325.129L51.7036+352.422L24.4107+352.422Z" opacity="1" fill="#a78108"/>
<path d="M43.7896+317.922L51.2036+325.336L51.2036+351.922L24.6177+351.922L17.2036+344.508L17.2036+317.922L43.7896+317.922M44.2036+316.922L16.2036+316.922L16.2036+344.922L24.2036+352.922L52.2036+352.922L52.2036+324.922L44.2036+316.922Z" opacity="1" fill="#a78108"/>
<path stroke="#a78108" stroke-width="1" d="M16.7036+317.422L24.7036+325.422" fill="#ffc200" stroke-linecap="butt" opacity="1" stroke-linejoin="miter"/>
<path d="M24.7036+325.422L51.7036+325.422L51.7036+352.422L24.7036+352.422L24.7036+325.422Z" opacity="1" fill="#ffc200"/>
<path d="M51.2036+325.922L51.2036+351.922L25.2036+351.922L25.2036+325.922L51.2036+325.922M52.2036+324.922L24.2036+324.922L24.2036+352.922L52.2036+352.922L52.2036+324.922Z" opacity="1" fill="#ffc200"/>
</g>
<g opacity="1">
<path d="M61.2998+320.496L53.5927+312.789L53.5927+285.496L80.8857+285.496L88.5927+293.203L88.5927+320.496L61.2998+320.496Z" opacity="1" fill="#a78108"/>
<path d="M80.6787+285.996L88.0927+293.41L88.0927+319.996L61.5068+319.996L54.0927+312.582L54.0927+285.996L80.6787+285.996M81.0927+284.996L53.0927+284.996L53.0927+312.996L61.0927+320.996L89.0927+320.996L89.0927+292.996L81.0927+284.996Z" opacity="1" fill="#a78108"/>
<path stroke="#a78108" stroke-width="1" d="M53.5927+285.496L61.5927+293.496" fill="#ffc200" stroke-linecap="butt" opacity="1" stroke-linejoin="miter"/>
<path d="M61.5927+293.496L88.5927+293.496L88.5927+320.496L61.5927+320.496L61.5927+293.496Z" opacity="1" fill="#ffc200"/>
<path d="M88.0927+293.996L88.0927+319.996L62.0927+319.996L62.0927+293.996L88.0927+293.996M89.0927+292.996L61.0927+292.996L61.0927+320.996L89.0927+320.996L89.0927+292.996Z" opacity="1" fill="#ffc200"/>
</g>
<g opacity="1">
<path d="M24.707+320.496L17+312.789L17+285.496L44.293+285.496L52+293.203L52+320.496L24.707+320.496Z" opacity="1" fill="#a78108"/>
<path d="M44.0859+285.996L51.5+293.41L51.5+319.996L24.9141+319.996L17.5+312.582L17.5+285.996L44.0859+285.996M44.5+284.996L16.5+284.996L16.5+312.996L24.5+320.996L52.5+320.996L52.5+292.996L44.5+284.996Z" opacity="1" fill="#a78108"/>
<path stroke="#a78108" stroke-width="1" d="M17+285.496L25+293.496" fill="#ffc200" stroke-linecap="butt" opacity="1" stroke-linejoin="miter"/>
<path d="M25+293.496L52+293.496L52+320.496L25+320.496L25+293.496Z" opacity="1" fill="#ffc200"/>
<path d="M51.5+293.996L51.5+319.996L25.5+319.996L25.5+293.996L51.5+293.996M52.5+292.996L24.5+292.996L24.5+320.996L52.5+320.996L52.5+292.996Z" opacity="1" fill="#ffc200"/>
</g>
<g opacity="1">
<path d="M61.2998+288.163L53.5927+280.455L53.5927+253.163L80.8857+253.163L88.5927+260.87L88.5927+288.163L61.2998+288.163Z" opacity="1" fill="#a78108"/>
<path d="M80.6787+253.663L88.0927+261.077L88.0927+287.663L61.5068+287.663L54.0927+280.248L54.0927+253.663L80.6787+253.663M81.0927+252.663L53.0927+252.663L53.0927+280.663L61.0927+288.663L89.0927+288.663L89.0927+260.663L81.0927+252.663Z" opacity="1" fill="#a78108"/>
<path stroke="#a78108" stroke-width="1" d="M53.5927+253.163L61.5927+261.163" fill="#ffc200" stroke-linecap="butt" opacity="1" stroke-linejoin="miter"/>
<path d="M61.5927+261.163L88.5927+261.163L88.5927+288.163L61.5927+288.163L61.5927+261.163Z" opacity="1" fill="#ffc200"/>
<path d="M88.0927+261.663L88.0927+287.663L62.0927+287.663L62.0927+261.663L88.0927+261.663M89.0927+260.663L61.0927+260.663L61.0927+288.663L89.0927+288.663L89.0927+260.663Z" opacity="1" fill="#ffc200"/>
</g>
<g opacity="1">
<path d="M24.707+288.163L17+280.455L17+253.163L44.293+253.163L52+260.87L52+288.163L24.707+288.163Z" opacity="1" fill="#a78108"/>
<path d="M44.0859+253.663L51.5+261.077L51.5+287.663L24.9141+287.663L17.5+280.248L17.5+253.663L44.0859+253.663M44.5+252.663L16.5+252.663L16.5+280.663L24.5+288.663L52.5+288.663L52.5+260.663L44.5+252.663Z" opacity="1" fill="#a78108"/>
<path stroke="#a78108" stroke-width="1" d="M17+253.163L25+261.163" fill="#ffc200" stroke-linecap="butt" opacity="1" stroke-linejoin="miter"/>
<path d="M25+261.163L52+261.163L52+288.163L25+288.163L25+261.163Z" opacity="1" fill="#ffc200"/>
<path d="M51.5+261.663L51.5+287.663L25.5+287.663L25.5+261.663L51.5+261.663M52.5+260.663L24.5+260.663L24.5+288.663L52.5+288.663L52.5+260.663Z" opacity="1" fill="#ffc200"/>
</g>
<g opacity="1">
<path d="M61.2998+256.056L53.5927+248.349L53.5927+221.056L80.8857+221.056L88.5927+228.763L88.5927+256.056L61.2998+256.056Z" opacity="1" fill="#a78108"/>
<path d="M80.6787+221.556L88.0927+228.97L88.0927+255.556L61.5068+255.556L54.0927+248.142L54.0927+221.556L80.6787+221.556M81.0927+220.556L53.0927+220.556L53.0927+248.556L61.0927+256.556L89.0927+256.556L89.0927+228.556L81.0927+220.556Z" opacity="1" fill="#a78108"/>
<path stroke="#a78108" stroke-width="1" d="M53.5927+221.056L61.5927+229.056" fill="#ffc200" stroke-linecap="butt" opacity="1" stroke-linejoin="miter"/>
<path d="M61.5927+229.056L88.5927+229.056L88.5927+256.056L61.5927+256.056L61.5927+229.056Z" opacity="1" fill="#ffc200"/>
<path d="M88.0927+229.556L88.0927+255.556L62.0927+255.556L62.0927+229.556L88.0927+229.556M89.0927+228.556L61.0927+228.556L61.0927+256.556L89.0927+256.556L89.0927+228.556Z" opacity="1" fill="#ffc200"/>
</g>
<g opacity="1">
<path d="M24.707+256.056L17+248.349L17+221.056L44.293+221.056L52+228.763L52+256.056L24.707+256.056Z" opacity="1" fill="#a78108"/>
<path d="M44.0859+221.556L51.5+228.97L51.5+255.556L24.9141+255.556L17.5+248.142L17.5+221.556L44.0859+221.556M44.5+220.556L16.5+220.556L16.5+248.556L24.5+256.556L52.5+256.556L52.5+228.556L44.5+220.556Z" opacity="1" fill="#a78108"/>
<path stroke="#a78108" stroke-width="1" d="M17+221.056L25+229.056" fill="#ffc200" stroke-linecap="butt" opacity="1" stroke-linejoin="miter"/>
<path d="M25+229.056L52+229.056L52+256.056L25+256.056L25+229.056Z" opacity="1" fill="#ffc200"/>
<path d="M51.5+229.556L51.5+255.556L25.5+255.556L25.5+229.556L51.5+229.556M52.5+228.556L24.5+228.556L24.5+256.556L52.5+256.556L52.5+228.556Z" opacity="1" fill="#ffc200"/>
</g>
<g opacity="1">
<path d="M61.2998+224.056L53.5927+216.349L53.5927+189.056L80.8857+189.056L88.5927+196.763L88.5927+224.056L61.2998+224.056Z" opacity="1" fill="#a78108"/>
<path d="M80.6787+189.556L88.0927+196.97L88.0927+223.556L61.5068+223.556L54.0927+216.142L54.0927+189.556L80.6787+189.556M81.0927+188.556L53.0927+188.556L53.0927+216.556L61.0927+224.556L89.0927+224.556L89.0927+196.556L81.0927+188.556Z" opacity="1" fill="#a78108"/>
<path stroke="#a78108" stroke-width="1" d="M53.5927+189.056L61.5927+197.056" fill="#ffc200" stroke-linecap="butt" opacity="1" stroke-linejoin="miter"/>
<path d="M61.5927+197.056L88.5927+197.056L88.5927+224.056L61.5927+224.056L61.5927+197.056Z" opacity="1" fill="#ffc200"/>
<path d="M88.0927+197.556L88.0927+223.556L62.0927+223.556L62.0927+197.556L88.0927+197.556M89.0927+196.556L61.0927+196.556L61.0927+224.556L89.0927+224.556L89.0927+196.556Z" opacity="1" fill="#ffc200"/>
</g>
<g opacity="1">
<path d="M24.707+224.056L17+216.349L17+189.056L44.293+189.056L52+196.763L52+224.056L24.707+224.056Z" opacity="1" fill="#a78108"/>
<path d="M44.0859+189.556L51.5+196.97L51.5+223.556L24.9141+223.556L17.5+216.142L17.5+189.556L44.0859+189.556M44.5+188.556L16.5+188.556L16.5+216.556L24.5+224.556L52.5+224.556L52.5+196.556L44.5+188.556Z" opacity="1" fill="#a78108"/>
<path stroke="#a78108" stroke-width="1" d="M17+189.056L25+197.056" fill="#ffc200" stroke-linecap="butt" opacity="1" stroke-linejoin="miter"/>
<path d="M25+197.056L52+197.056L52+224.056L25+224.056L25+197.056Z" opacity="1" fill="#ffc200"/>
<path d="M51.5+197.556L51.5+223.556L25.5+223.556L25.5+197.556L51.5+197.556M52.5+196.556L24.5+196.556L24.5+224.556L52.5+224.556L52.5+196.556Z" opacity="1" fill="#ffc200"/>
</g>
<g opacity="1">
<path d="M61.2998+192.056L53.5927+184.349L53.5927+157.056L80.8857+157.056L88.5927+164.763L88.5927+192.056L61.2998+192.056Z" opacity="1" fill="#a78108"/>
<path d="M80.6787+157.556L88.0927+164.97L88.0927+191.556L61.5068+191.556L54.0927+184.142L54.0927+157.556L80.6787+157.556M81.0927+156.556L53.0927+156.556L53.0927+184.556L61.0927+192.556L89.0927+192.556L89.0927+164.556L81.0927+156.556Z" opacity="1" fill="#a78108"/>
<path stroke="#a78108" stroke-width="1" d="M53.5927+157.056L61.5927+165.056" fill="#ffc200" stroke-linecap="butt" opacity="1" stroke-linejoin="miter"/>
<path d="M61.5927+165.056L88.5927+165.056L88.5927+192.056L61.5927+192.056L61.5927+165.056Z" opacity="1" fill="#ffc200"/>
<path d="M88.0927+165.556L88.0927+191.556L62.0927+191.556L62.0927+165.556L88.0927+165.556M89.0927+164.556L61.0927+164.556L61.0927+192.556L89.0927+192.556L89.0927+164.556Z" opacity="1" fill="#ffc200"/>
</g>
<g opacity="1">
<path d="M24.707+192.056L17+184.349L17+157.056L44.293+157.056L52+164.763L52+192.056L24.707+192.056Z" opacity="1" fill="#a78108"/>
<path d="M44.0859+157.556L51.5+164.97L51.5+191.556L24.9141+191.556L17.5+184.142L17.5+157.556L44.0859+157.556M44.5+156.556L16.5+156.556L16.5+184.556L24.5+192.556L52.5+192.556L52.5+164.556L44.5+156.556Z" opacity="1" fill="#a78108"/>
<path stroke="#a78108" stroke-width="1" d="M17+157.056L25+165.056" fill="#ffc200" stroke-linecap="butt" opacity="1" stroke-linejoin="miter"/>
<path d="M25+165.056L52+165.056L52+192.056L25+192.056L25+165.056Z" opacity="1" fill="#ffc200"/>
<path d="M51.5+165.556L51.5+191.556L25.5+191.556L25.5+165.556L51.5+165.556M52.5+164.556L24.5+164.556L24.5+192.556L52.5+192.556L52.5+164.556Z" opacity="1" fill="#ffc200"/>
</g>
<g opacity="1">
<path d="M61.2998+160.056L53.5927+152.349L53.5927+125.056L80.8857+125.056L88.5927+132.763L88.5927+160.056L61.2998+160.056Z" opacity="1" fill="#a78108"/>
<path d="M80.6787+125.556L88.0927+132.97L88.0927+159.556L61.5068+159.556L54.0927+152.142L54.0927+125.556L80.6787+125.556M81.0927+124.556L53.0927+124.556L53.0927+152.556L61.0927+160.556L89.0927+160.556L89.0927+132.556L81.0927+124.556Z" opacity="1" fill="#a78108"/>
<path stroke="#a78108" stroke-width="1" d="M53.5927+125.056L61.5927+133.056" fill="#ffc200" stroke-linecap="butt" opacity="1" stroke-linejoin="miter"/>
<path d="M61.5927+133.056L88.5927+133.056L88.5927+160.056L61.5927+160.056L61.5927+133.056Z" opacity="1" fill="#ffc200"/>
<path d="M88.0927+133.556L88.0927+159.556L62.0927+159.556L62.0927+133.556L88.0927+133.556M89.0927+132.556L61.0927+132.556L61.0927+160.556L89.0927+160.556L89.0927+132.556Z" opacity="1" fill="#ffc200"/>
</g>
<g opacity="1">
<path d="M24.707+160.056L17+152.349L17+125.056L44.293+125.056L52+132.763L52+160.056L24.707+160.056Z" opacity="1" fill="#a78108"/>
<path d="M44.0859+125.556L51.5+132.97L51.5+159.556L24.9141+159.556L17.5+152.142L17.5+125.556L44.0859+125.556M44.5+124.556L16.5+124.556L16.5+152.556L24.5+160.556L52.5+160.556L52.5+132.556L44.5+124.556Z" opacity="1" fill="#a78108"/>
<path stroke="#a78108" stroke-width="1" d="M17+125.056L25+133.056" fill="#ffc200" stroke-linecap="butt" opacity="1" stroke-linejoin="miter"/>
<path d="M25+133.056L52+133.056L52+160.056L25+160.056L25+133.056Z" opacity="1" fill="#ffc200"/>
<path d="M51.5+133.556L51.5+159.556L25.5+159.556L25.5+133.556L51.5+133.556M52.5+132.556L24.5+132.556L24.5+160.556L52.5+160.556L52.5+132.556Z" opacity="1" fill="#ffc200"/>
</g>
<g opacity="1">
<path d="M61.2998+128.056L53.5927+120.349L53.5927+93.0563L80.8857+93.0563L88.5927+100.763L88.5927+128.056L61.2998+128.056Z" opacity="1" fill="#a78108"/>
<path d="M80.6787+93.5563L88.0927+100.97L88.0927+127.556L61.5068+127.556L54.0927+120.142L54.0927+93.5563L80.6787+93.5563M81.0927+92.5563L53.0927+92.5563L53.0927+120.556L61.0927+128.556L89.0927+128.556L89.0927+100.556L81.0927+92.5563Z" opacity="1" fill="#a78108"/>
<path stroke="#a78108" stroke-width="1" d="M53.5927+93.0563L61.5927+101.056" fill="#ffc200" stroke-linecap="butt" opacity="1" stroke-linejoin="miter"/>
<path d="M61.5927+101.056L88.5927+101.056L88.5927+128.056L61.5927+128.056L61.5927+101.056Z" opacity="1" fill="#ffc200"/>
<path d="M88.0927+101.556L88.0927+127.556L62.0927+127.556L62.0927+101.556L88.0927+101.556M89.0927+100.556L61.0927+100.556L61.0927+128.556L89.0927+128.556L89.0927+100.556Z" opacity="1" fill="#ffc200"/>
</g>
<g opacity="1">
<path d="M24.707+128.056L17+120.349L17+93.0563L44.293+93.0563L52+100.763L52+128.056L24.707+128.056Z" opacity="1" fill="#a78108"/>
<path d="M44.0859+93.5563L51.5+100.97L51.5+127.556L24.9141+127.556L17.5+120.142L17.5+93.5563L44.0859+93.5563M44.5+92.5563L16.5+92.5563L16.5+120.556L24.5+128.556L52.5+128.556L52.5+100.556L44.5+92.5563Z" opacity="1" fill="#a78108"/>
<path stroke="#a78108" stroke-width="1" d="M17+93.0563L25+101.056" fill="#ffc200" stroke-linecap="butt" opacity="1" stroke-linejoin="miter"/>
<path d="M25+101.056L52+101.056L52+128.056L25+128.056L25+101.056Z" opacity="1" fill="#ffc200"/>
<path d="M51.5+101.556L51.5+127.556L25.5+127.556L25.5+101.556L51.5+101.556M52.5+100.556L24.5+100.556L24.5+128.556L52.5+128.556L52.5+100.556Z" opacity="1" fill="#ffc200"/>
</g>
<g opacity="1">
<path d="M61.2998+96.0563L53.5927+88.3493L53.5927+61.0563L80.8857+61.0563L88.5927+68.7633L88.5927+96.0563L61.2998+96.0563Z" opacity="1" fill="#a78108"/>
<path d="M80.6787+61.5563L88.0927+68.9704L88.0927+95.5563L61.5068+95.5563L54.0927+88.1423L54.0927+61.5563L80.6787+61.5563M81.0927+60.5563L53.0927+60.5563L53.0927+88.5563L61.0927+96.5563L89.0927+96.5563L89.0927+68.5563L81.0927+60.5563Z" opacity="1" fill="#a78108"/>
<path stroke="#a78108" stroke-width="1" d="M53.5927+61.0563L61.5927+69.0563" fill="#ffc200" stroke-linecap="butt" opacity="1" stroke-linejoin="miter"/>
<path d="M61.5927+69.0563L88.5927+69.0563L88.5927+96.0563L61.5927+96.0563L61.5927+69.0563Z" opacity="1" fill="#ffc200"/>
<path d="M88.0927+69.5563L88.0927+95.5563L62.0927+95.5563L62.0927+69.5563L88.0927+69.5563M89.0927+68.5563L61.0927+68.5563L61.0927+96.5563L89.0927+96.5563L89.0927+68.5563Z" opacity="1" fill="#ffc200"/>
</g>
<g opacity="1">
<path d="M24.707+96.0563L17+88.3493L17+61.0563L44.293+61.0563L52+68.7633L52+96.0563L24.707+96.0563Z" opacity="1" fill="#a78108"/>
<path d="M44.0859+61.5563L51.5+68.9704L51.5+95.5563L24.9141+95.5563L17.5+88.1423L17.5+61.5563L44.0859+61.5563M44.5+60.5563L16.5+60.5563L16.5+88.5563L24.5+96.5563L52.5+96.5563L52.5+68.5563L44.5+60.5563Z" opacity="1" fill="#a78108"/>
<path stroke="#a78108" stroke-width="1" d="M17+61.0563L25+69.0563" fill="#ffc200" stroke-linecap="butt" opacity="1" stroke-linejoin="miter"/>
<path d="M25+69.0563L52+69.0563L52+96.0563L25+96.0563L25+69.0563Z" opacity="1" fill="#ffc200"/>
<path d="M51.5+69.5563L51.5+95.5563L25.5+95.5563L25.5+69.5563L51.5+69.5563M52.5+68.5563L24.5+68.5563L24.5+96.5563L52.5+96.5563L52.5+68.5563Z" opacity="1" fill="#ffc200"/>
</g>
<g opacity="1">
<path d="M61.2998+64.0563L53.5927+56.3493L53.5927+29.0563L80.8857+29.0563L88.5927+36.7633L88.5927+64.0563L61.2998+64.0563Z" opacity="1" fill="#a78108"/>
<path d="M80.6787+29.5563L88.0927+36.9704L88.0927+63.5563L61.5068+63.5563L54.0927+56.1423L54.0927+29.5563L80.6787+29.5563M81.0927+28.5563L53.0927+28.5563L53.0927+56.5563L61.0927+64.5563L89.0927+64.5563L89.0927+36.5563L81.0927+28.5563Z" opacity="1" fill="#a78108"/>
<path stroke="#a78108" stroke-width="1" d="M53.5927+29.0563L61.5927+37.0563" fill="#ffc200" stroke-linecap="butt" opacity="1" stroke-linejoin="miter"/>
<path d="M61.5927+37.0563L88.5927+37.0563L88.5927+64.0563L61.5927+64.0563L61.5927+37.0563Z" opacity="1" fill="#ffc200"/>
<path d="M88.0927+37.5563L88.0927+63.5563L62.0927+63.5563L62.0927+37.5563L88.0927+37.5563M89.0927+36.5563L61.0927+36.5563L61.0927+64.5563L89.0927+64.5563L89.0927+36.5563Z" opacity="1" fill="#ffc200"/>
</g>
<g opacity="1">
<path d="M24.707+64.0563L17+56.3493L17+29.0563L44.293+29.0563L52+36.7633L52+64.0563L24.707+64.0563Z" opacity="1" fill="#a78108"/>
<path d="M44.0859+29.5563L51.5+36.9704L51.5+63.5563L24.9141+63.5563L17.5+56.1423L17.5+29.5563L44.0859+29.5563M44.5+28.5563L16.5+28.5563L16.5+56.5563L24.5+64.5563L52.5+64.5563L52.5+36.5563L44.5+28.5563Z" opacity="1" fill="#a78108"/>
<path stroke="#a78108" stroke-width="1" d="M17+29.0563L25+37.0563" fill="#ffc200" stroke-linecap="butt" opacity="1" stroke-linejoin="miter"/>
<path d="M25+37.0563L52+37.0563L52+64.0563L25+64.0563L25+37.0563Z" opacity="1" fill="#ffc200"/>
<path d="M51.5+37.5563L51.5+63.5563L25.5+63.5563L25.5+37.5563L51.5+37.5563M52.5+36.5563L24.5+36.5563L24.5+64.5563L52.5+64.5563L52.5+36.5563Z" opacity="1" fill="#ffc200"/>
</g>
<g opacity="1">
<path d="M134.189+416.422L126.482+408.715L126.482+381.422L153.775+381.422L161.482+389.129L161.482+416.422L134.189+416.422Z" opacity="1" fill="#a78108"/>
<path d="M153.568+381.922L160.982+389.336L160.982+415.922L134.396+415.922L126.982+408.508L126.982+381.922L153.568+381.922M153.982+380.922L125.982+380.922L125.982+408.922L133.982+416.922L161.982+416.922L161.982+388.922L153.982+380.922Z" opacity="1" fill="#a78108"/>
<path stroke="#a78108" stroke-width="1" d="M126.482+381.422L134.482+389.422" fill="#ffc200" stroke-linecap="butt" opacity="1" stroke-linejoin="miter"/>
<path d="M134.482+389.422L161.482+389.422L161.482+416.422L134.482+416.422L134.482+389.422Z" opacity="1" fill="#ffc200"/>
<path d="M160.982+389.922L160.982+415.922L134.982+415.922L134.982+389.922L160.982+389.922M161.982+388.922L133.982+388.922L133.982+416.922L161.982+416.922L161.982+388.922Z" opacity="1" fill="#ffc200"/>
</g>
<g opacity="1">
<path d="M97.5961+416.422L89.8891+408.715L89.8891+381.422L117.182+381.422L124.889+389.129L124.889+416.422L97.5961+416.422Z" opacity="1" fill="#a78108"/>
<path d="M116.975+381.922L124.389+389.336L124.389+415.922L97.8032+415.922L90.3891+408.508L90.3891+381.922L116.975+381.922M117.389+380.922L89.3891+380.922L89.3891+408.922L97.3891+416.922L125.389+416.922L125.389+388.922L117.389+380.922Z" opacity="1" fill="#a78108"/>
<path stroke="#a78108" stroke-width="1" d="M89.8891+381.422L97.8891+389.422" fill="#ffc200" stroke-linecap="butt" opacity="1" stroke-linejoin="miter"/>
<path d="M97.8891+389.422L124.889+389.422L124.889+416.422L97.8891+416.422L97.8891+389.422Z" opacity="1" fill="#ffc200"/>
<path d="M124.389+389.922L124.389+415.922L98.3891+415.922L98.3891+389.922L124.389+389.922M125.389+388.922L97.3891+388.922L97.3891+416.922L125.389+416.922L125.389+388.922Z" opacity="1" fill="#ffc200"/>
</g>
<g opacity="1">
<path d="M134.189+384.422L126.482+376.715L126.482+349.422L153.775+349.422L161.482+357.129L161.482+384.422L134.189+384.422Z" opacity="1" fill="#a78108"/>
<path d="M153.568+349.922L160.982+357.336L160.982+383.922L134.396+383.922L126.982+376.508L126.982+349.922L153.568+349.922M153.982+348.922L125.982+348.922L125.982+376.922L133.982+384.922L161.982+384.922L161.982+356.922L153.982+348.922Z" opacity="1" fill="#a78108"/>
<path stroke="#a78108" stroke-width="1" d="M126.482+349.422L134.482+357.422" fill="#ffc200" stroke-linecap="butt" opacity="1" stroke-linejoin="miter"/>
<path d="M134.482+357.422L161.482+357.422L161.482+384.422L134.482+384.422L134.482+357.422Z" opacity="1" fill="#ffc200"/>
<path d="M160.982+357.922L160.982+383.922L134.982+383.922L134.982+357.922L160.982+357.922M161.982+356.922L133.982+356.922L133.982+384.922L161.982+384.922L161.982+356.922Z" opacity="1" fill="#ffc200"/>
</g>
<g opacity="1">
<path d="M97.5961+384.422L89.8891+376.715L89.8891+349.422L117.182+349.422L124.889+357.129L124.889+384.422L97.5961+384.422Z" opacity="1" fill="#a78108"/>
<path d="M116.975+349.922L124.389+357.336L124.389+383.922L97.8032+383.922L90.3891+376.508L90.3891+349.922L116.975+349.922M117.389+348.922L89.3891+348.922L89.3891+376.922L97.3891+384.922L125.389+384.922L125.389+356.922L117.389+348.922Z" opacity="1" fill="#a78108"/>
<path stroke="#a78108" stroke-width="1" d="M89.8891+349.422L97.8891+357.422" fill="#ffc200" stroke-linecap="butt" opacity="1" stroke-linejoin="miter"/>
<path d="M97.8891+357.422L124.889+357.422L124.889+384.422L97.8891+384.422L97.8891+357.422Z" opacity="1" fill="#ffc200"/>
<path d="M124.389+357.922L124.389+383.922L98.3891+383.922L98.3891+357.922L124.389+357.922M125.389+356.922L97.3891+356.922L97.3891+384.922L125.389+384.922L125.389+356.922Z" opacity="1" fill="#ffc200"/>
</g>
<g opacity="1">
<path d="M134.189+352.422L126.482+344.715L126.482+317.422L153.775+317.422L161.482+325.129L161.482+352.422L134.189+352.422Z" opacity="1" fill="#a78108"/>
<path d="M153.568+317.922L160.982+325.336L160.982+351.922L134.396+351.922L126.982+344.508L126.982+317.922L153.568+317.922M153.982+316.922L125.982+316.922L125.982+344.922L133.982+352.922L161.982+352.922L161.982+324.922L153.982+316.922Z" opacity="1" fill="#a78108"/>
<path stroke="#a78108" stroke-width="1" d="M126.482+317.422L134.482+325.422" fill="#ffc200" stroke-linecap="butt" opacity="1" stroke-linejoin="miter"/>
<path d="M134.482+325.422L161.482+325.422L161.482+352.422L134.482+352.422L134.482+325.422Z" opacity="1" fill="#ffc200"/>
<path d="M160.982+325.922L160.982+351.922L134.982+351.922L134.982+325.922L160.982+325.922M161.982+324.922L133.982+324.922L133.982+352.922L161.982+352.922L161.982+324.922Z" opacity="1" fill="#ffc200"/>
</g>
<g opacity="1">
<path d="M97.5961+352.422L89.8891+344.715L89.8891+317.422L117.182+317.422L124.889+325.129L124.889+352.422L97.5961+352.422Z" opacity="1" fill="#a78108"/>
<path d="M116.975+317.922L124.389+325.336L124.389+351.922L97.8032+351.922L90.3891+344.508L90.3891+317.922L116.975+317.922M117.389+316.922L89.3891+316.922L89.3891+344.922L97.3891+352.922L125.389+352.922L125.389+324.922L117.389+316.922Z" opacity="1" fill="#a78108"/>
<path stroke="#a78108" stroke-width="1" d="M89.8891+317.422L97.8891+325.422" fill="#ffc200" stroke-linecap="butt" opacity="1" stroke-linejoin="miter"/>
<path d="M97.8891+325.422L124.889+325.422L124.889+352.422L97.8891+352.422L97.8891+325.422Z" opacity="1" fill="#ffc200"/>
<path d="M124.389+325.922L124.389+351.922L98.3891+351.922L98.3891+325.922L124.389+325.922M125.389+324.922L97.3891+324.922L97.3891+352.922L125.389+352.922L125.389+324.922Z" opacity="1" fill="#ffc200"/>
</g>
<g opacity="1">
<path d="M207.782+416.422L200.075+408.715L200.075+381.422L227.368+381.422L235.075+389.129L235.075+416.422L207.782+416.422Z" opacity="1" fill="#a78108"/>
<path d="M227.161+381.922L234.575+389.336L234.575+415.922L207.989+415.922L200.575+408.508L200.575+381.922L227.161+381.922M227.575+380.922L199.575+380.922L199.575+408.922L207.575+416.922L235.575+416.922L235.575+388.922L227.575+380.922Z" opacity="1" fill="#a78108"/>
<path stroke="#a78108" stroke-width="1" d="M200.075+381.422L208.075+389.422" fill="#ffc200" stroke-linecap="butt" opacity="1" stroke-linejoin="miter"/>
<path d="M208.075+389.422L235.075+389.422L235.075+416.422L208.075+416.422L208.075+389.422Z" opacity="1" fill="#ffc200"/>
<path d="M234.575+389.922L234.575+415.922L208.575+415.922L208.575+389.922L234.575+389.922M235.575+388.922L207.575+388.922L207.575+416.922L235.575+416.922L235.575+388.922Z" opacity="1" fill="#ffc200"/>
</g>
<g opacity="1">
<path d="M171.189+416.422L163.482+408.715L163.482+381.422L190.775+381.422L198.482+389.129L198.482+416.422L171.189+416.422Z" opacity="1" fill="#a78108"/>
<path d="M190.568+381.922L197.982+389.336L197.982+415.922L171.396+415.922L163.982+408.508L163.982+381.922L190.568+381.922M190.982+380.922L162.982+380.922L162.982+408.922L170.982+416.922L198.982+416.922L198.982+388.922L190.982+380.922Z" opacity="1" fill="#a78108"/>
<path stroke="#a78108" stroke-width="1" d="M163.482+381.422L171.482+389.422" fill="#ffc200" stroke-linecap="butt" opacity="1" stroke-linejoin="miter"/>
<path d="M171.482+389.422L198.482+389.422L198.482+416.422L171.482+416.422L171.482+389.422Z" opacity="1" fill="#ffc200"/>
<path d="M197.982+389.922L197.982+415.922L171.982+415.922L171.982+389.922L197.982+389.922M198.982+388.922L170.982+388.922L170.982+416.922L198.982+416.922L198.982+388.922Z" opacity="1" fill="#ffc200"/>
</g>
<g opacity="1">
<path d="M207.782+384.422L200.075+376.715L200.075+349.422L227.368+349.422L235.075+357.129L235.075+384.422L207.782+384.422Z" opacity="1" fill="#a78108"/>
<path d="M227.161+349.922L234.575+357.336L234.575+383.922L207.989+383.922L200.575+376.508L200.575+349.922L227.161+349.922M227.575+348.922L199.575+348.922L199.575+376.922L207.575+384.922L235.575+384.922L235.575+356.922L227.575+348.922Z" opacity="1" fill="#a78108"/>
<path stroke="#a78108" stroke-width="1" d="M200.075+349.422L208.075+357.422" fill="#ffc200" stroke-linecap="butt" opacity="1" stroke-linejoin="miter"/>
<path d="M208.075+357.422L235.075+357.422L235.075+384.422L208.075+384.422L208.075+357.422Z" opacity="1" fill="#ffc200"/>
<path d="M234.575+357.922L234.575+383.922L208.575+383.922L208.575+357.922L234.575+357.922M235.575+356.922L207.575+356.922L207.575+384.922L235.575+384.922L235.575+356.922Z" opacity="1" fill="#ffc200"/>
</g>
<g opacity="1">
<path d="M171.189+384.422L163.482+376.715L163.482+349.422L190.775+349.422L198.482+357.129L198.482+384.422L171.189+384.422Z" opacity="1" fill="#a78108"/>
<path d="M190.568+349.922L197.982+357.336L197.982+383.922L171.396+383.922L163.982+376.508L163.982+349.922L190.568+349.922M190.982+348.922L162.982+348.922L162.982+376.922L170.982+384.922L198.982+384.922L198.982+356.922L190.982+348.922Z" opacity="1" fill="#a78108"/>
<path stroke="#a78108" stroke-width="1" d="M163.482+349.422L171.482+357.422" fill="#ffc200" stroke-linecap="butt" opacity="1" stroke-linejoin="miter"/>
<path d="M171.482+357.422L198.482+357.422L198.482+384.422L171.482+384.422L171.482+357.422Z" opacity="1" fill="#ffc200"/>
<path d="M197.982+357.922L197.982+383.922L171.982+383.922L171.982+357.922L197.982+357.922M198.982+356.922L170.982+356.922L170.982+384.922L198.982+384.922L198.982+356.922Z" opacity="1" fill="#ffc200"/>
</g>
<g opacity="1">
<path d="M207.782+352.422L200.075+344.715L200.075+317.422L227.368+317.422L235.075+325.129L235.075+352.422L207.782+352.422Z" opacity="1" fill="#a78108"/>
<path d="M227.161+317.922L234.575+325.336L234.575+351.922L207.989+351.922L200.575+344.508L200.575+317.922L227.161+317.922M227.575+316.922L199.575+316.922L199.575+344.922L207.575+352.922L235.575+352.922L235.575+324.922L227.575+316.922Z" opacity="1" fill="#a78108"/>
<path stroke="#a78108" stroke-width="1" d="M200.075+317.422L208.075+325.422" fill="#ffc200" stroke-linecap="butt" opacity="1" stroke-linejoin="miter"/>
<path d="M208.075+325.422L235.075+325.422L235.075+352.422L208.075+352.422L208.075+325.422Z" opacity="1" fill="#ffc200"/>
<path d="M234.575+325.922L234.575+351.922L208.575+351.922L208.575+325.922L234.575+325.922M235.575+324.922L207.575+324.922L207.575+352.922L235.575+352.922L235.575+324.922Z" opacity="1" fill="#ffc200"/>
</g>
<g opacity="1">
<path d="M171.189+352.422L163.482+344.715L163.482+317.422L190.775+317.422L198.482+325.129L198.482+352.422L171.189+352.422Z" opacity="1" fill="#a78108"/>
<path d="M190.568+317.922L197.982+325.336L197.982+351.922L171.396+351.922L163.982+344.508L163.982+317.922L190.568+317.922M190.982+316.922L162.982+316.922L162.982+344.922L170.982+352.922L198.982+352.922L198.982+324.922L190.982+316.922Z" opacity="1" fill="#a78108"/>
<path stroke="#a78108" stroke-width="1" d="M163.482+317.422L171.482+325.422" fill="#ffc200" stroke-linecap="butt" opacity="1" stroke-linejoin="miter"/>
<path d="M171.482+325.422L198.482+325.422L198.482+352.422L171.482+352.422L171.482+325.422Z" opacity="1" fill="#ffc200"/>
<path d="M197.982+325.922L197.982+351.922L171.982+351.922L171.982+325.922L197.982+325.922M198.982+324.922L170.982+324.922L170.982+352.922L198.982+352.922L198.982+324.922Z" opacity="1" fill="#ffc200"/>
</g>
<g opacity="1">
<path d="M281.374+416.422L273.667+408.715L273.667+381.422L300.96+381.422L308.667+389.129L308.667+416.422L281.374+416.422Z" opacity="1" fill="#a78108"/>
<path d="M300.753+381.922L308.167+389.336L308.167+415.922L281.581+415.922L274.167+408.508L274.167+381.922L300.753+381.922M301.167+380.922L273.167+380.922L273.167+408.922L281.167+416.922L309.167+416.922L309.167+388.922L301.167+380.922Z" opacity="1" fill="#a78108"/>
<path stroke="#a78108" stroke-width="1" d="M273.667+381.422L281.667+389.422" fill="#ffc200" stroke-linecap="butt" opacity="1" stroke-linejoin="miter"/>
<path d="M281.667+389.422L308.667+389.422L308.667+416.422L281.667+416.422L281.667+389.422Z" opacity="1" fill="#ffc200"/>
<path d="M308.167+389.922L308.167+415.922L282.167+415.922L282.167+389.922L308.167+389.922M309.167+388.922L281.167+388.922L281.167+416.922L309.167+416.922L309.167+388.922Z" opacity="1" fill="#ffc200"/>
</g>
<g opacity="1">
<path d="M244.782+416.422L237.075+408.715L237.075+381.422L264.368+381.422L272.075+389.129L272.075+416.422L244.782+416.422Z" opacity="1" fill="#a78108"/>
<path d="M264.161+381.922L271.575+389.336L271.575+415.922L244.989+415.922L237.575+408.508L237.575+381.922L264.161+381.922M264.575+380.922L236.575+380.922L236.575+408.922L244.575+416.922L272.575+416.922L272.575+388.922L264.575+380.922Z" opacity="1" fill="#a78108"/>
<path stroke="#a78108" stroke-width="1" d="M237.075+381.422L245.075+389.422" fill="#ffc200" stroke-linecap="butt" opacity="1" stroke-linejoin="miter"/>
<path d="M245.075+389.422L272.075+389.422L272.075+416.422L245.075+416.422L245.075+389.422Z" opacity="1" fill="#ffc200"/>
<path d="M271.575+389.922L271.575+415.922L245.575+415.922L245.575+389.922L271.575+389.922M272.575+388.922L244.575+388.922L244.575+416.922L272.575+416.922L272.575+388.922Z" opacity="1" fill="#ffc200"/>
</g>
<g opacity="1">
<path d="M281.374+384.422L273.667+376.715L273.667+349.422L300.96+349.422L308.667+357.129L308.667+384.422L281.374+384.422Z" opacity="1" fill="#a78108"/>
<path d="M300.753+349.922L308.167+357.336L308.167+383.922L281.581+383.922L274.167+376.508L274.167+349.922L300.753+349.922M301.167+348.922L273.167+348.922L273.167+376.922L281.167+384.922L309.167+384.922L309.167+356.922L301.167+348.922Z" opacity="1" fill="#a78108"/>
<path stroke="#a78108" stroke-width="1" d="M273.667+349.422L281.667+357.422" fill="#ffc200" stroke-linecap="butt" opacity="1" stroke-linejoin="miter"/>
<path d="M281.667+357.422L308.667+357.422L308.667+384.422L281.667+384.422L281.667+357.422Z" opacity="1" fill="#ffc200"/>
<path d="M308.167+357.922L308.167+383.922L282.167+383.922L282.167+357.922L308.167+357.922M309.167+356.922L281.167+356.922L281.167+384.922L309.167+384.922L309.167+356.922Z" opacity="1" fill="#ffc200"/>
</g>
<g opacity="1">
<path d="M244.782+384.422L237.075+376.715L237.075+349.422L264.368+349.422L272.075+357.129L272.075+384.422L244.782+384.422Z" opacity="1" fill="#a78108"/>
<path d="M264.161+349.922L271.575+357.336L271.575+383.922L244.989+383.922L237.575+376.508L237.575+349.922L264.161+349.922M264.575+348.922L236.575+348.922L236.575+376.922L244.575+384.922L272.575+384.922L272.575+356.922L264.575+348.922Z" opacity="1" fill="#a78108"/>
<path stroke="#a78108" stroke-width="1" d="M237.075+349.422L245.075+357.422" fill="#ffc200" stroke-linecap="butt" opacity="1" stroke-linejoin="miter"/>
<path d="M245.075+357.422L272.075+357.422L272.075+384.422L245.075+384.422L245.075+357.422Z" opacity="1" fill="#ffc200"/>
<path d="M271.575+357.922L271.575+383.922L245.575+383.922L245.575+357.922L271.575+357.922M272.575+356.922L244.575+356.922L244.575+384.922L272.575+384.922L272.575+356.922Z" opacity="1" fill="#ffc200"/>
</g>
<g opacity="1">
<path d="M281.374+352.422L273.667+344.715L273.667+317.422L300.96+317.422L308.667+325.129L308.667+352.422L281.374+352.422Z" opacity="1" fill="#a78108"/>
<path d="M300.753+317.922L308.167+325.336L308.167+351.922L281.581+351.922L274.167+344.508L274.167+317.922L300.753+317.922M301.167+316.922L273.167+316.922L273.167+344.922L281.167+352.922L309.167+352.922L309.167+324.922L301.167+316.922Z" opacity="1" fill="#a78108"/>
<path stroke="#a78108" stroke-width="1" d="M273.667+317.422L281.667+325.422" fill="#ffc200" stroke-linecap="butt" opacity="1" stroke-linejoin="miter"/>
<path d="M281.667+325.422L308.667+325.422L308.667+352.422L281.667+352.422L281.667+325.422Z" opacity="1" fill="#ffc200"/>
<path d="M308.167+325.922L308.167+351.922L282.167+351.922L282.167+325.922L308.167+325.922M309.167+324.922L281.167+324.922L281.167+352.922L309.167+352.922L309.167+324.922Z" opacity="1" fill="#ffc200"/>
</g>
<g opacity="1">
<path d="M244.782+352.422L237.075+344.715L237.075+317.422L264.368+317.422L272.075+325.129L272.075+352.422L244.782+352.422Z" opacity="1" fill="#a78108"/>
<path d="M264.161+317.922L271.575+325.336L271.575+351.922L244.989+351.922L237.575+344.508L237.575+317.922L264.161+317.922M264.575+316.922L236.575+316.922L236.575+344.922L244.575+352.922L272.575+352.922L272.575+324.922L264.575+316.922Z" opacity="1" fill="#a78108"/>
<path stroke="#a78108" stroke-width="1" d="M237.075+317.422L245.075+325.422" fill="#ffc200" stroke-linecap="butt" opacity="1" stroke-linejoin="miter"/>
<path d="M245.075+325.422L272.075+325.422L272.075+352.422L245.075+352.422L245.075+325.422Z" opacity="1" fill="#ffc200"/>
<path d="M271.575+325.922L271.575+351.922L245.575+351.922L245.575+325.922L271.575+325.922M272.575+324.922L244.575+324.922L244.575+352.922L272.575+352.922L272.575+324.922Z" opacity="1" fill="#ffc200"/>
</g>
<g opacity="1">
<path d="M354.967+416.422L347.26+408.715L347.26+381.422L374.553+381.422L382.26+389.129L382.26+416.422L354.967+416.422Z" opacity="1" fill="#a78108"/>
<path d="M374.346+381.922L381.76+389.336L381.76+415.922L355.174+415.922L347.76+408.508L347.76+381.922L374.346+381.922M374.76+380.922L346.76+380.922L346.76+408.922L354.76+416.922L382.76+416.922L382.76+388.922L374.76+380.922Z" opacity="1" fill="#a78108"/>
<path stroke="#a78108" stroke-width="1" d="M347.26+381.422L355.26+389.422" fill="#ffc200" stroke-linecap="butt" opacity="1" stroke-linejoin="miter"/>
<path d="M355.26+389.422L382.26+389.422L382.26+416.422L355.26+416.422L355.26+389.422Z" opacity="1" fill="#ffc200"/>
<path d="M381.76+389.922L381.76+415.922L355.76+415.922L355.76+389.922L381.76+389.922M382.76+388.922L354.76+388.922L354.76+416.922L382.76+416.922L382.76+388.922Z" opacity="1" fill="#ffc200"/>
</g>
<g opacity="1">
<path d="M318.374+416.422L310.667+408.715L310.667+381.422L337.96+381.422L345.667+389.129L345.667+416.422L318.374+416.422Z" opacity="1" fill="#a78108"/>
<path d="M337.753+381.922L345.167+389.336L345.167+415.922L318.581+415.922L311.167+408.508L311.167+381.922L337.753+381.922M338.167+380.922L310.167+380.922L310.167+408.922L318.167+416.922L346.167+416.922L346.167+388.922L338.167+380.922Z" opacity="1" fill="#a78108"/>
<path stroke="#a78108" stroke-width="1" d="M310.667+381.422L318.667+389.422" fill="#ffc200" stroke-linecap="butt" opacity="1" stroke-linejoin="miter"/>
<path d="M318.667+389.422L345.667+389.422L345.667+416.422L318.667+416.422L318.667+389.422Z" opacity="1" fill="#ffc200"/>
<path d="M345.167+389.922L345.167+415.922L319.167+415.922L319.167+389.922L345.167+389.922M346.167+388.922L318.167+388.922L318.167+416.922L346.167+416.922L346.167+388.922Z" opacity="1" fill="#ffc200"/>
</g>
<g opacity="1">
<path d="M354.967+384.422L347.26+376.715L347.26+349.422L374.553+349.422L382.26+357.129L382.26+384.422L354.967+384.422Z" opacity="1" fill="#a78108"/>
<path d="M374.346+349.922L381.76+357.336L381.76+383.922L355.174+383.922L347.76+376.508L347.76+349.922L374.346+349.922M374.76+348.922L346.76+348.922L346.76+376.922L354.76+384.922L382.76+384.922L382.76+356.922L374.76+348.922Z" opacity="1" fill="#a78108"/>
<path stroke="#a78108" stroke-width="1" d="M347.26+349.422L355.26+357.422" fill="#ffc200" stroke-linecap="butt" opacity="1" stroke-linejoin="miter"/>
<path d="M355.26+357.422L382.26+357.422L382.26+384.422L355.26+384.422L355.26+357.422Z" opacity="1" fill="#ffc200"/>
<path d="M381.76+357.922L381.76+383.922L355.76+383.922L355.76+357.922L381.76+357.922M382.76+356.922L354.76+356.922L354.76+384.922L382.76+384.922L382.76+356.922Z" opacity="1" fill="#ffc200"/>
</g>
<g opacity="1">
<path d="M318.374+384.422L310.667+376.715L310.667+349.422L337.96+349.422L345.667+357.129L345.667+384.422L318.374+384.422Z" opacity="1" fill="#a78108"/>
<path d="M337.753+349.922L345.167+357.336L345.167+383.922L318.581+383.922L311.167+376.508L311.167+349.922L337.753+349.922M338.167+348.922L310.167+348.922L310.167+376.922L318.167+384.922L346.167+384.922L346.167+356.922L338.167+348.922Z" opacity="1" fill="#a78108"/>
<path stroke="#a78108" stroke-width="1" d="M310.667+349.422L318.667+357.422" fill="#ffc200" stroke-linecap="butt" opacity="1" stroke-linejoin="miter"/>
<path d="M318.667+357.422L345.667+357.422L345.667+384.422L318.667+384.422L318.667+357.422Z" opacity="1" fill="#ffc200"/>
<path d="M345.167+357.922L345.167+383.922L319.167+383.922L319.167+357.922L345.167+357.922M346.167+356.922L318.167+356.922L318.167+384.922L346.167+384.922L346.167+356.922Z" opacity="1" fill="#ffc200"/>
</g>
<g opacity="1">
<path d="M354.967+352.422L347.26+344.715L347.26+317.422L374.553+317.422L382.26+325.129L382.26+352.422L354.967+352.422Z" opacity="1" fill="#a78108"/>
<path d="M374.346+317.922L381.76+325.336L381.76+351.922L355.174+351.922L347.76+344.508L347.76+317.922L374.346+317.922M374.76+316.922L346.76+316.922L346.76+344.922L354.76+352.922L382.76+352.922L382.76+324.922L374.76+316.922Z" opacity="1" fill="#a78108"/>
<path stroke="#a78108" stroke-width="1" d="M347.26+317.422L355.26+325.422" fill="#ffc200" stroke-linecap="butt" opacity="1" stroke-linejoin="miter"/>
<path d="M355.26+325.422L382.26+325.422L382.26+352.422L355.26+352.422L355.26+325.422Z" opacity="1" fill="#ffc200"/>
<path d="M381.76+325.922L381.76+351.922L355.76+351.922L355.76+325.922L381.76+325.922M382.76+324.922L354.76+324.922L354.76+352.922L382.76+352.922L382.76+324.922Z" opacity="1" fill="#ffc200"/>
</g>
<g opacity="1">
<path d="M318.374+352.422L310.667+344.715L310.667+317.422L337.96+317.422L345.667+325.129L345.667+352.422L318.374+352.422Z" opacity="1" fill="#a78108"/>
<path d="M337.753+317.922L345.167+325.336L345.167+351.922L318.581+351.922L311.167+344.508L311.167+317.922L337.753+317.922M338.167+316.922L310.167+316.922L310.167+344.922L318.167+352.922L346.167+352.922L346.167+324.922L338.167+316.922Z" opacity="1" fill="#a78108"/>
<path stroke="#a78108" stroke-width="1" d="M310.667+317.422L318.667+325.422" fill="#ffc200" stroke-linecap="butt" opacity="1" stroke-linejoin="miter"/>
<path d="M318.667+325.422L345.667+325.422L345.667+352.422L318.667+352.422L318.667+325.422Z" opacity="1" fill="#ffc200"/>
<path d="M345.167+325.922L345.167+351.922L319.167+351.922L319.167+325.922L345.167+325.922M346.167+324.922L318.167+324.922L318.167+352.922L346.167+352.922L346.167+324.922Z" opacity="1" fill="#ffc200"/>
</g>
<g opacity="1">
<path d="M391.356+320.056L383.649+312.349L383.649+285.056L410.942+285.056L418.649+292.763L418.649+320.056L391.356+320.056Z" opacity="1" fill="#a78108"/>
<path d="M410.735+285.556L418.149+292.97L418.149+319.556L391.563+319.556L384.149+312.142L384.149+285.556L410.735+285.556M411.149+284.556L383.149+284.556L383.149+312.556L391.149+320.556L419.149+320.556L419.149+292.556L411.149+284.556Z" opacity="1" fill="#a78108"/>
<path stroke="#a78108" stroke-width="1" d="M383.649+285.056L391.649+293.056" fill="#ffc200" stroke-linecap="butt" opacity="1" stroke-linejoin="miter"/>
<path d="M391.649+293.056L418.649+293.056L418.649+320.056L391.649+320.056L391.649+293.056Z" opacity="1" fill="#ffc200"/>
<path d="M418.149+293.556L418.149+319.556L392.149+319.556L392.149+293.556L418.149+293.556M419.149+292.556L391.149+292.556L391.149+320.556L419.149+320.556L419.149+292.556Z" opacity="1" fill="#ffc200"/>
</g>
<g opacity="1">
<path d="M354.763+320.056L347.056+312.349L347.056+285.056L374.349+285.056L382.056+292.763L382.056+320.056L354.763+320.056Z" opacity="1" fill="#a78108"/>
<path d="M374.142+285.556L381.556+292.97L381.556+319.556L354.97+319.556L347.556+312.142L347.556+285.556L374.142+285.556M374.556+284.556L346.556+284.556L346.556+312.556L354.556+320.556L382.556+320.556L382.556+292.556L374.556+284.556Z" opacity="1" fill="#a78108"/>
<path stroke="#a78108" stroke-width="1" d="M347.056+285.056L355.056+293.056" fill="#ffc200" stroke-linecap="butt" opacity="1" stroke-linejoin="miter"/>
<path d="M355.056+293.056L382.056+293.056L382.056+320.056L355.056+320.056L355.056+293.056Z" opacity="1" fill="#ffc200"/>
<path d="M381.556+293.556L381.556+319.556L355.556+319.556L355.556+293.556L381.556+293.556M382.556+292.556L354.556+292.556L354.556+320.556L382.556+320.556L382.556+292.556Z" opacity="1" fill="#ffc200"/>
</g>
<g opacity="1">
<path d="M391.356+288.056L383.649+280.349L383.649+253.056L410.942+253.056L418.649+260.763L418.649+288.056L391.356+288.056Z" opacity="1" fill="#a78108"/>
<path d="M410.735+253.556L418.149+260.97L418.149+287.556L391.563+287.556L384.149+280.142L384.149+253.556L410.735+253.556M411.149+252.556L383.149+252.556L383.149+280.556L391.149+288.556L419.149+288.556L419.149+260.556L411.149+252.556Z" opacity="1" fill="#a78108"/>
<path stroke="#a78108" stroke-width="1" d="M383.649+253.056L391.649+261.056" fill="#ffc200" stroke-linecap="butt" opacity="1" stroke-linejoin="miter"/>
<path d="M391.649+261.056L418.649+261.056L418.649+288.056L391.649+288.056L391.649+261.056Z" opacity="1" fill="#ffc200"/>
<path d="M418.149+261.556L418.149+287.556L392.149+287.556L392.149+261.556L418.149+261.556M419.149+260.556L391.149+260.556L391.149+288.556L419.149+288.556L419.149+260.556Z" opacity="1" fill="#ffc200"/>
</g>
<g opacity="1">
<path d="M354.763+288.056L347.056+280.349L347.056+253.056L374.349+253.056L382.056+260.763L382.056+288.056L354.763+288.056Z" opacity="1" fill="#a78108"/>
<path d="M374.142+253.556L381.556+260.97L381.556+287.556L354.97+287.556L347.556+280.142L347.556+253.556L374.142+253.556M374.556+252.556L346.556+252.556L346.556+280.556L354.556+288.556L382.556+288.556L382.556+260.556L374.556+252.556Z" opacity="1" fill="#a78108"/>
<path stroke="#a78108" stroke-width="1" d="M347.056+253.056L355.056+261.056" fill="#ffc200" stroke-linecap="butt" opacity="1" stroke-linejoin="miter"/>
<path d="M355.056+261.056L382.056+261.056L382.056+288.056L355.056+288.056L355.056+261.056Z" opacity="1" fill="#ffc200"/>
<path d="M381.556+261.556L381.556+287.556L355.556+287.556L355.556+261.556L381.556+261.556M382.556+260.556L354.556+260.556L354.556+288.556L382.556+288.556L382.556+260.556Z" opacity="1" fill="#ffc200"/>
</g>
<g opacity="1">
<path d="M391.356+256.056L383.649+248.349L383.649+221.056L410.942+221.056L418.649+228.763L418.649+256.056L391.356+256.056Z" opacity="1" fill="#a78108"/>
<path d="M410.735+221.556L418.149+228.97L418.149+255.556L391.563+255.556L384.149+248.142L384.149+221.556L410.735+221.556M411.149+220.556L383.149+220.556L383.149+248.556L391.149+256.556L419.149+256.556L419.149+228.556L411.149+220.556Z" opacity="1" fill="#a78108"/>
<path stroke="#a78108" stroke-width="1" d="M383.649+221.056L391.649+229.056" fill="#ffc200" stroke-linecap="butt" opacity="1" stroke-linejoin="miter"/>
<path d="M391.649+229.056L418.649+229.056L418.649+256.056L391.649+256.056L391.649+229.056Z" opacity="1" fill="#ffc200"/>
<path d="M418.149+229.556L418.149+255.556L392.149+255.556L392.149+229.556L418.149+229.556M419.149+228.556L391.149+228.556L391.149+256.556L419.149+256.556L419.149+228.556Z" opacity="1" fill="#ffc200"/>
</g>
<g opacity="1">
<path d="M354.763+256.056L347.056+248.349L347.056+221.056L374.349+221.056L382.056+228.763L382.056+256.056L354.763+256.056Z" opacity="1" fill="#a78108"/>
<path d="M374.142+221.556L381.556+228.97L381.556+255.556L354.97+255.556L347.556+248.142L347.556+221.556L374.142+221.556M374.556+220.556L346.556+220.556L346.556+248.556L354.556+256.556L382.556+256.556L382.556+228.556L374.556+220.556Z" opacity="1" fill="#a78108"/>
<path stroke="#a78108" stroke-width="1" d="M347.056+221.056L355.056+229.056" fill="#ffc200" stroke-linecap="butt" opacity="1" stroke-linejoin="miter"/>
<path d="M355.056+229.056L382.056+229.056L382.056+256.056L355.056+256.056L355.056+229.056Z" opacity="1" fill="#ffc200"/>
<path d="M381.556+229.556L381.556+255.556L355.556+255.556L355.556+229.556L381.556+229.556M382.556+228.556L354.556+228.556L354.556+256.556L382.556+256.556L382.556+228.556Z" opacity="1" fill="#ffc200"/>
</g>
<g opacity="1">
<path d="M428.745+416.422L421.038+408.715L421.038+381.422L448.331+381.422L456.038+389.129L456.038+416.422L428.745+416.422Z" opacity="1" fill="#a78108"/>
<path d="M448.124+381.922L455.538+389.336L455.538+415.922L428.952+415.922L421.538+408.508L421.538+381.922L448.124+381.922M448.538+380.922L420.538+380.922L420.538+408.922L428.538+416.922L456.538+416.922L456.538+388.922L448.538+380.922Z" opacity="1" fill="#a78108"/>
<path stroke="#a78108" stroke-width="1" d="M421.038+381.422L429.038+389.422" fill="#ffc200" stroke-linecap="butt" opacity="1" stroke-linejoin="miter"/>
<path d="M429.038+389.422L456.038+389.422L456.038+416.422L429.038+416.422L429.038+389.422Z" opacity="1" fill="#ffc200"/>
<path d="M455.538+389.922L455.538+415.922L429.538+415.922L429.538+389.922L455.538+389.922M456.538+388.922L428.538+388.922L428.538+416.922L456.538+416.922L456.538+388.922Z" opacity="1" fill="#ffc200"/>
</g>
<g opacity="1">
<path d="M392.152+416.422L384.445+408.715L384.445+381.422L411.738+381.422L419.445+389.129L419.445+416.422L392.152+416.422Z" opacity="1" fill="#a78108"/>
<path d="M411.531+381.922L418.945+389.336L418.945+415.922L392.359+415.922L384.945+408.508L384.945+381.922L411.531+381.922M411.945+380.922L383.945+380.922L383.945+408.922L391.945+416.922L419.945+416.922L419.945+388.922L411.945+380.922Z" opacity="1" fill="#a78108"/>
<path stroke="#a78108" stroke-width="1" d="M384.445+381.422L392.445+389.422" fill="#ffc200" stroke-linecap="butt" opacity="1" stroke-linejoin="miter"/>
<path d="M392.445+389.422L419.445+389.422L419.445+416.422L392.445+416.422L392.445+389.422Z" opacity="1" fill="#ffc200"/>
<path d="M418.945+389.922L418.945+415.922L392.945+415.922L392.945+389.922L418.945+389.922M419.945+388.922L391.945+388.922L391.945+416.922L419.945+416.922L419.945+388.922Z" opacity="1" fill="#ffc200"/>
</g>
<g opacity="1">
<path d="M428.745+384.422L421.038+376.715L421.038+349.422L448.331+349.422L456.038+357.129L456.038+384.422L428.745+384.422Z" opacity="1" fill="#a78108"/>
<path d="M448.124+349.922L455.538+357.336L455.538+383.922L428.952+383.922L421.538+376.508L421.538+349.922L448.124+349.922M448.538+348.922L420.538+348.922L420.538+376.922L428.538+384.922L456.538+384.922L456.538+356.922L448.538+348.922Z" opacity="1" fill="#a78108"/>
<path stroke="#a78108" stroke-width="1" d="M421.038+349.422L429.038+357.422" fill="#ffc200" stroke-linecap="butt" opacity="1" stroke-linejoin="miter"/>
<path d="M429.038+357.422L456.038+357.422L456.038+384.422L429.038+384.422L429.038+357.422Z" opacity="1" fill="#ffc200"/>
<path d="M455.538+357.922L455.538+383.922L429.538+383.922L429.538+357.922L455.538+357.922M456.538+356.922L428.538+356.922L428.538+384.922L456.538+384.922L456.538+356.922Z" opacity="1" fill="#ffc200"/>
</g>
<g opacity="1">
<path d="M392.152+384.422L384.445+376.715L384.445+349.422L411.738+349.422L419.445+357.129L419.445+384.422L392.152+384.422Z" opacity="1" fill="#a78108"/>
<path d="M411.531+349.922L418.945+357.336L418.945+383.922L392.359+383.922L384.945+376.508L384.945+349.922L411.531+349.922M411.945+348.922L383.945+348.922L383.945+376.922L391.945+384.922L419.945+384.922L419.945+356.922L411.945+348.922Z" opacity="1" fill="#a78108"/>
<path stroke="#a78108" stroke-width="1" d="M384.445+349.422L392.445+357.422" fill="#ffc200" stroke-linecap="butt" opacity="1" stroke-linejoin="miter"/>
<path d="M392.445+357.422L419.445+357.422L419.445+384.422L392.445+384.422L392.445+357.422Z" opacity="1" fill="#ffc200"/>
<path d="M418.945+357.922L418.945+383.922L392.945+383.922L392.945+357.922L418.945+357.922M419.945+356.922L391.945+356.922L391.945+384.922L419.945+384.922L419.945+356.922Z" opacity="1" fill="#ffc200"/>
</g>
<g opacity="1">
<path d="M428.745+352.422L421.038+344.715L421.038+317.422L448.331+317.422L456.038+325.129L456.038+352.422L428.745+352.422Z" opacity="1" fill="#a78108"/>
<path d="M448.124+317.922L455.538+325.336L455.538+351.922L428.952+351.922L421.538+344.508L421.538+317.922L448.124+317.922M448.538+316.922L420.538+316.922L420.538+344.922L428.538+352.922L456.538+352.922L456.538+324.922L448.538+316.922Z" opacity="1" fill="#a78108"/>
<path stroke="#a78108" stroke-width="1" d="M421.038+317.422L429.038+325.422" fill="#ffc200" stroke-linecap="butt" opacity="1" stroke-linejoin="miter"/>
<path d="M429.038+325.422L456.038+325.422L456.038+352.422L429.038+352.422L429.038+325.422Z" opacity="1" fill="#ffc200"/>
<path d="M455.538+325.922L455.538+351.922L429.538+351.922L429.538+325.922L455.538+325.922M456.538+324.922L428.538+324.922L428.538+352.922L456.538+352.922L456.538+324.922Z" opacity="1" fill="#ffc200"/>
</g>
<g opacity="1">
<path d="M392.152+352.422L384.445+344.715L384.445+317.422L411.738+317.422L419.445+325.129L419.445+352.422L392.152+352.422Z" opacity="1" fill="#a78108"/>
<path d="M411.531+317.922L418.945+325.336L418.945+351.922L392.359+351.922L384.945+344.508L384.945+317.922L411.531+317.922M411.945+316.922L383.945+316.922L383.945+344.922L391.945+352.922L419.945+352.922L419.945+324.922L411.945+316.922Z" opacity="1" fill="#a78108"/>
<path stroke="#a78108" stroke-width="1" d="M384.445+317.422L392.445+325.422" fill="#ffc200" stroke-linecap="butt" opacity="1" stroke-linejoin="miter"/>
<path d="M392.445+325.422L419.445+325.422L419.445+352.422L392.445+352.422L392.445+325.422Z" opacity="1" fill="#ffc200"/>
<path d="M418.945+325.922L418.945+351.922L392.945+351.922L392.945+325.922L418.945+325.922M419.945+324.922L391.945+324.922L391.945+352.922L419.945+352.922L419.945+324.922Z" opacity="1" fill="#ffc200"/>
</g>
<g opacity="1">
<path d="M465.745+416.422L458.038+408.715L458.038+381.422L485.331+381.422L493.038+389.129L493.038+416.422L465.745+416.422Z" opacity="1" fill="#a78108"/>
<path d="M485.124+381.922L492.538+389.336L492.538+415.922L465.952+415.922L458.538+408.508L458.538+381.922L485.124+381.922M485.538+380.922L457.538+380.922L457.538+408.922L465.538+416.922L493.538+416.922L493.538+388.922L485.538+380.922Z" opacity="1" fill="#a78108"/>
<path stroke="#a78108" stroke-width="1" d="M458.038+381.422L466.038+389.422" fill="#ffc200" stroke-linecap="butt" opacity="1" stroke-linejoin="miter"/>
<path d="M466.038+389.422L493.038+389.422L493.038+416.422L466.038+416.422L466.038+389.422Z" opacity="1" fill="#ffc200"/>
<path d="M492.538+389.922L492.538+415.922L466.538+415.922L466.538+389.922L492.538+389.922M493.538+388.922L465.538+388.922L465.538+416.922L493.538+416.922L493.538+388.922Z" opacity="1" fill="#ffc200"/>
</g>
<g opacity="1">
<path d="M465.745+384.422L458.038+376.715L458.038+349.422L485.331+349.422L493.038+357.129L493.038+384.422L465.745+384.422Z" opacity="1" fill="#a78108"/>
<path d="M485.124+349.922L492.538+357.336L492.538+383.922L465.952+383.922L458.538+376.508L458.538+349.922L485.124+349.922M485.538+348.922L457.538+348.922L457.538+376.922L465.538+384.922L493.538+384.922L493.538+356.922L485.538+348.922Z" opacity="1" fill="#a78108"/>
<path stroke="#a78108" stroke-width="1" d="M458.038+349.422L466.038+357.422" fill="#ffc200" stroke-linecap="butt" opacity="1" stroke-linejoin="miter"/>
<path d="M466.038+357.422L493.038+357.422L493.038+384.422L466.038+384.422L466.038+357.422Z" opacity="1" fill="#ffc200"/>
<path d="M492.538+357.922L492.538+383.922L466.538+383.922L466.538+357.922L492.538+357.922M493.538+356.922L465.538+356.922L465.538+384.922L493.538+384.922L493.538+356.922Z" opacity="1" fill="#ffc200"/>
</g>
<g opacity="1">
<path d="M465.745+352.422L458.038+344.715L458.038+317.422L485.331+317.422L493.038+325.129L493.038+352.422L465.745+352.422Z" opacity="1" fill="#a78108"/>
<path d="M485.124+317.922L492.538+325.336L492.538+351.922L465.952+351.922L458.538+344.508L458.538+317.922L485.124+317.922M485.538+316.922L457.538+316.922L457.538+344.922L465.538+352.922L493.538+352.922L493.538+324.922L485.538+316.922Z" opacity="1" fill="#a78108"/>
<path stroke="#a78108" stroke-width="1" d="M458.038+317.422L466.038+325.422" fill="#ffc200" stroke-linecap="butt" opacity="1" stroke-linejoin="miter"/>
<path d="M466.038+325.422L493.038+325.422L493.038+352.422L466.038+352.422L466.038+325.422Z" opacity="1" fill="#ffc200"/>
<path d="M492.538+325.922L492.538+351.922L466.538+351.922L466.538+325.922L492.538+325.922M493.538+324.922L465.538+324.922L465.538+352.922L493.538+352.922L493.538+324.922Z" opacity="1" fill="#ffc200"/>
</g>
</g>
<g id="TF" vectornator:layerName="TF" visibility="hidden">
<path d="M339.224+220.767L409.944+220.767C411.642+220.767+413.019+222.249+413.019+224.078L413.019+325.881C413.019+327.709+411.642+329.192+409.944+329.192L339.223+329.192C337.525+329.192+336.149+327.709+336.149+325.881L336.149+224.078C336.149+222.249+337.525+220.767+339.224+220.767Z" fill-rule="evenodd" fill="#ffc200" opacity="1"/>
<path d="M92.03+334.043L88.5448+343.074" fill-rule="evenodd" fill="url(#RadialGradient_3)" opacity="1"/>
<g opacity="1">
<path d="M146.189+439.422L138.482+431.715L138.482+404.422L165.775+404.422L173.482+412.129L173.482+439.422L146.189+439.422Z" opacity="1" fill="#a78108"/>
<path d="M165.568+404.922L172.982+412.336L172.982+438.922L146.396+438.922L138.982+431.508L138.982+404.922L165.568+404.922M165.982+403.922L137.982+403.922L137.982+431.922L145.982+439.922L173.982+439.922L173.982+411.922L165.982+403.922Z" opacity="1" fill="#a78108"/>
<path stroke="#a78108" stroke-width="1" d="M138.482+404.422L146.482+412.422" fill="#ffc200" stroke-linecap="butt" opacity="1" stroke-linejoin="miter"/>
<path d="M146.482+412.422L173.482+412.422L173.482+439.422L146.482+439.422L146.482+412.422Z" opacity="1" fill="#ffc200"/>
<path d="M172.982+412.922L172.982+438.922L146.982+438.922L146.982+412.922L172.982+412.922M173.982+411.922L145.982+411.922L145.982+439.922L173.982+439.922L173.982+411.922Z" opacity="1" fill="#ffc200"/>
</g>
<g opacity="1">
<path d="M109.596+439.422L101.889+431.715L101.889+404.422L129.182+404.422L136.889+412.129L136.889+439.422L109.596+439.422Z" opacity="1" fill="#a78108"/>
<path d="M128.975+404.922L136.389+412.336L136.389+438.922L109.803+438.922L102.389+431.508L102.389+404.922L128.975+404.922M129.389+403.922L101.389+403.922L101.389+431.922L109.389+439.922L137.389+439.922L137.389+411.922L129.389+403.922Z" opacity="1" fill="#a78108"/>
<path stroke="#a78108" stroke-width="1" d="M101.889+404.422L109.889+412.422" fill="#ffc200" stroke-linecap="butt" opacity="1" stroke-linejoin="miter"/>
<path d="M109.889+412.422L136.889+412.422L136.889+439.422L109.889+439.422L109.889+412.422Z" opacity="1" fill="#ffc200"/>
<path d="M136.389+412.922L136.389+438.922L110.389+438.922L110.389+412.922L136.389+412.922M137.389+411.922L109.389+411.922L109.389+439.922L137.389+439.922L137.389+411.922Z" opacity="1" fill="#ffc200"/>
</g>
<g opacity="1">
<path d="M146.189+407.422L138.482+399.715L138.482+372.422L165.775+372.422L173.482+380.129L173.482+407.422L146.189+407.422Z" opacity="1" fill="#a78108"/>
<path d="M165.568+372.922L172.982+380.336L172.982+406.922L146.396+406.922L138.982+399.508L138.982+372.922L165.568+372.922M165.982+371.922L137.982+371.922L137.982+399.922L145.982+407.922L173.982+407.922L173.982+379.922L165.982+371.922Z" opacity="1" fill="#a78108"/>
<path stroke="#a78108" stroke-width="1" d="M138.482+372.422L146.482+380.422" fill="#ffc200" stroke-linecap="butt" opacity="1" stroke-linejoin="miter"/>
<path d="M146.482+380.422L173.482+380.422L173.482+407.422L146.482+407.422L146.482+380.422Z" opacity="1" fill="#ffc200"/>
<path d="M172.982+380.922L172.982+406.922L146.982+406.922L146.982+380.922L172.982+380.922M173.982+379.922L145.982+379.922L145.982+407.922L173.982+407.922L173.982+379.922Z" opacity="1" fill="#ffc200"/>
</g>
<g opacity="1">
<path d="M109.596+407.422L101.889+399.715L101.889+372.422L129.182+372.422L136.889+380.129L136.889+407.422L109.596+407.422Z" opacity="1" fill="#a78108"/>
<path d="M128.975+372.922L136.389+380.336L136.389+406.922L109.803+406.922L102.389+399.508L102.389+372.922L128.975+372.922M129.389+371.922L101.389+371.922L101.389+399.922L109.389+407.922L137.389+407.922L137.389+379.922L129.389+371.922Z" opacity="1" fill="#a78108"/>
<path stroke="#a78108" stroke-width="1" d="M101.889+372.422L109.889+380.422" fill="#ffc200" stroke-linecap="butt" opacity="1" stroke-linejoin="miter"/>
<path d="M109.889+380.422L136.889+380.422L136.889+407.422L109.889+407.422L109.889+380.422Z" opacity="1" fill="#ffc200"/>
<path d="M136.389+380.922L136.389+406.922L110.389+406.922L110.389+380.922L136.389+380.922M137.389+379.922L109.389+379.922L109.389+407.922L137.389+407.922L137.389+379.922Z" opacity="1" fill="#ffc200"/>
</g>
<g opacity="1">
<path d="M146.189+375.422L138.482+367.715L138.482+340.422L165.775+340.422L173.482+348.129L173.482+375.422L146.189+375.422Z" opacity="1" fill="#a78108"/>
<path d="M165.568+340.922L172.982+348.336L172.982+374.922L146.396+374.922L138.982+367.508L138.982+340.922L165.568+340.922M165.982+339.922L137.982+339.922L137.982+367.922L145.982+375.922L173.982+375.922L173.982+347.922L165.982+339.922Z" opacity="1" fill="#a78108"/>
<path stroke="#a78108" stroke-width="1" d="M138.482+340.422L146.482+348.422" fill="#ffc200" stroke-linecap="butt" opacity="1" stroke-linejoin="miter"/>
<path d="M146.482+348.422L173.482+348.422L173.482+375.422L146.482+375.422L146.482+348.422Z" opacity="1" fill="#ffc200"/>
<path d="M172.982+348.922L172.982+374.922L146.982+374.922L146.982+348.922L172.982+348.922M173.982+347.922L145.982+347.922L145.982+375.922L173.982+375.922L173.982+347.922Z" opacity="1" fill="#ffc200"/>
</g>
<g opacity="1">
<path d="M109.596+375.422L101.889+367.715L101.889+340.422L129.182+340.422L136.889+348.129L136.889+375.422L109.596+375.422Z" opacity="1" fill="#a78108"/>
<path d="M128.975+340.922L136.389+348.336L136.389+374.922L109.803+374.922L102.389+367.508L102.389+340.922L128.975+340.922M129.389+339.922L101.389+339.922L101.389+367.922L109.389+375.922L137.389+375.922L137.389+347.922L129.389+339.922Z" opacity="1" fill="#a78108"/>
<path stroke="#a78108" stroke-width="1" d="M101.889+340.422L109.889+348.422" fill="#ffc200" stroke-linecap="butt" opacity="1" stroke-linejoin="miter"/>
<path d="M109.889+348.422L136.889+348.422L136.889+375.422L109.889+375.422L109.889+348.422Z" opacity="1" fill="#ffc200"/>
<path d="M136.389+348.922L136.389+374.922L110.389+374.922L110.389+348.922L136.389+348.922M137.389+347.922L109.389+347.922L109.389+375.922L137.389+375.922L137.389+347.922Z" opacity="1" fill="#ffc200"/>
</g>
</g>
</svg>
