<?xml version="1.0" encoding="UTF-8" standalone="no"?> <!-- Created with Vectornator for iOS (http://vectornator.io/) --><!DOCTYPE svg PUBLIC "-//W3C//DTD SVG 1.1//EN" "http://www.w3.org/Graphics/SVG/1.1/DTD/svg11.dtd">
<svg height="100%" style="fill-rule:evenodd;clip-rule:evenodd;stroke-linecap:round;stroke-linejoin:round;" xmlns:xlink="http://www.w3.org/1999/xlink" xmlns="http://www.w3.org/2000/svg" xml:space="preserve" width="100%" xmlns:vectornator="http://vectornator.io" version="1.1" viewBox="0 0 513.246 517.325">
<metadata>
<vectornator:setting key="DynamicGuides" value="1"/>
<vectornator:setting key="Units" value="Points"/>
<vectornator:setting key="GuidesVisible" value="1"/>
<vectornator:setting key="GridSpacing" value="36"/>
<vectornator:setting key="SnapToGuides" value="0"/>
<vectornator:setting key="RulersVisible" value="1"/>
</metadata>
<defs>
<radialGradient cx="210.439" r="110.956" id="RadialGradient" gradientUnits="userSpaceOnUse" gradientTransform="matrix(1 0 0 1.0515 -1 -96.868)" cy="366.956">
<stop stop-color="#2e4aa4" offset="0"/>
<stop stop-color="#1f3888" offset="1"/>
</radialGradient>
<radialGradient cx="90.2874" r="1.74264" id="RadialGradient_2" gradientUnits="userSpaceOnUse" gradientTransform="matrix(1 0 0 1 0 0)" cy="338.559">
<stop stop-color="#26429e" offset="0"/>
<stop stop-color="#000462" offset="1"/>
</radialGradient>
</defs>
<g id="D" vectornator:layerName="D">
<path d="M195.188+177.938C130.506+177.264+77.6355+241.802+77.0938+322.094C77.0798+324.158+77.2147+326.155+77.3125+328.188C77.3381+328.181+77.3479+328.159+77.375+328.156C77.74+328.081+77.9446+328.146+78.2188+328.25C78.2896+328.277+78.3519+328.305+78.4375+328.344C78.4954+328.372+78.5209+328.425+78.5625+328.469C78.645+328.445+78.7162+328.4+78.8125+328.406C80.0307+328.457+80.9421+328.457+81.75+328.312C82.0563+328.259+82.3271+328.372+82.5938+328.5C82.844+328.306+83.1143+328.103+83.4062+328.094C83.7898+328.074+84.1613+328.206+84.4688+328.5C84.4874+328.518+84.4818+328.544+84.5+328.562C84.9912+328.559+85.5495+328.576+86.1875+328.562C86.4215+328.437+86.6529+328.288+86.9375+328.312C88.4878+328.449+92.9631+328.532+93.0625+328.531C93.5849+328.54+93.647+328.571+94.0625+328.594C94.3771+328.586+94.5188+328.577+94.9688+328.562C98.2272+328.479+99.6617+328.469+101.469+328.469C101.515+328.469+101.548+328.498+101.594+328.5C102.962+328.355+104.328+328.127+105.75+328.125C107.161+328.125+108.509+328.298+109.844+328.562C109.997+328.507+110.109+328.373+110.281+328.375C110.909+328.375+112.145+328.53+113.031+328.625C115.28+328.627+124.632+328.653+126.844+328.656C127.077+328.437+127.326+328.22+127.625+328.188C128.007+328.143+128.427+328.259+128.75+328.531C128.942+328.693+129.21+328.717+130.219+328.594C130.583+328.549+130.772+328.551+131+328.531C131.474+328.496+131.893+328.498+132.312+328.562C133.019+328.676+133.999+328.626+134.906+328.625C135.814+328.548+136.379+328.401+137.625+328.375C138.016+328.368+138.308+328.354+139.031+328.344C140.77+328.324+141.525+328.33+142.344+328.281C142.605+328.265+142.809+328.421+143.031+328.531C143.392+328.469+143.926+328.344+144.25+328.312C144.616+328.279+144.94+328.422+145.219+328.625C146.636+328.556+148.122+328.463+149.219+328.469C149.401+328.469+149.526+328.592+149.688+328.656C149.697+328.653+149.709+328.659+149.719+328.656C149.891+328.603+150.03+328.484+150.219+328.5C150.835+328.553+151.552+328.522+152.188+328.562C152.223+328.562+152.278+328.562+152.312+328.562C152.344+328.565+152.376+328.564+152.406+328.562C154.195+328.678+156.05+328.721+157.938+328.75C161.179+328.63+163.954+328.559+166.094+328.625C166.104+328.624+166.115+328.625+166.125+328.625C168.374+328.52+170.671+328.505+172.812+328.281C173.234+328.239+173.544+328.429+173.812+328.719C174.684+328.828+175.617+328.863+176.531+328.906C176.664+328.901+176.805+328.843+176.938+328.844C177.236+328.849+177.518+328.935+177.812+328.969C178.251+328.745+178.668+328.464+179.219+328.375C180.115+328.231+181.616+328.39+183.594+328.75C184.23+328.711+184.64+328.744+185.344+328.688C185.891+328.642+186.34+328.615+187.312+328.531C191.826+328.148+193.816+328.031+196.312+328.031C196.721+328.031+197.009+328.267+197.25+328.562C197.322+328.552+197.363+328.469+197.438+328.469C197.755+328.469+198.007+328.637+198.25+328.812L198.406+328.719C198.496+328.688+198.506+328.685+198.625+328.656C198.938+328.62+198.937+328.622+198.969+328.625C199.023+328.625+199.102+328.625+199.156+328.625C199.299+328.625+199.457+328.621+199.438+328.625C199.378+328.636+199.372+328.661+199.844+328.5C199.879+328.488+200.29+328.352+200.438+328.312C200.549+328.283+200.647+328.264+200.75+328.25C200.861+328.234+200.853+328.193+201.031+328.188C201.275+328.186+201.274+328.214+201.844+328.469C201.968+328.552+201.971+328.679+202.062+328.781C202.449+328.808+202.858+328.824+203.219+328.844C203.54+328.837+203.8+328.839+204.375+328.812C204.925+328.786+205.195+328.794+205.5+328.781C205.701+328.772+205.777+328.796+205.969+328.781C208.337+328.674+210.087+328.594+211.781+328.594C211.837+328.594+213.703+328.429+213.969+328.406C214.933+328.324+215.568+328.313+216.125+328.375C216.419+328.113+216.805+327.956+217.219+328C217.977+328.066+218.588+328.481+219.125+329.062C219.304+328.983+219.45+328.805+219.656+328.812C220.188+328.812+223.533+328.837+224.75+328.844C224.973+328.561+225.177+328.421+225.469+328.25C225.756+328.081+226.059+327.958+226.375+327.969C226.694+327.978+227.021+328.113+227.312+328.312C227.441+328.401+227.456+328.547+227.562+328.656C227.941+328.628+228.224+328.537+228.688+328.531C229.135+328.531+232.016+328.282+232.438+328.25C234.73+328.075+236.238+328.158+237.375+328.812C238.517+328.743+239.353+328.683+240.156+328.594C244.849+328.069+248.877+328.019+252.312+328.344C252.579+328.317+252.963+328.295+253.094+328.281C253.773+328.212+254.368+328.154+254.938+328.125C256.015+328.07+256.924+328.121+257.656+328.25C257.905+328.293+258.352+328.482+258.75+328.625C259.074+328.376+259.483+328.269+259.906+328.344C261.426+328.611+262.869+328.596+265.562+328.438C265.77+328.426+265.76+328.444+265.969+328.438C268.678+328.277+269.877+328.228+271.406+328.375C271.681+328.402+271.882+328.595+272.094+328.75C273.879+328.56+275.046+328.456+276.125+328.5C276.128+328.501+277.489+328.413+277.719+328.406C278.241+328.387+278.677+328.413+279.031+328.438C279.278+328.453+279.489+328.45+279.688+328.5C279.694+328.498+279.713+328.502+279.719+328.5C279.776+328.481+279.881+328.418+279.969+328.406C280.605+328.44+280.591+328.43+280.625+328.469C280.683+328.489+281.095+328.644+281.125+328.656C281.207+328.687+281.255+328.694+281.219+328.688C281.281+328.697+281.4+328.709+281.469+328.719C281.538+328.715+281.585+328.65+281.656+328.656C282.605+328.727+283.958+328.679+284.969+328.719C284.978+328.72+284.99+328.72+285+328.719C286.045+328.533+287.04+328.444+287.938+328.625C289.042+328.5+290.184+328.489+294.312+328.656C294.955+328.682+295.405+328.703+295.844+328.719C299.407+328.85+300.811+328.702+301.906+328.531C302.211+328.484+303.517+328.532+303.594+328.469C303.918+328.198+304.306+328.079+304.688+328.125C305.069+328.171+305.431+328.377+305.688+328.719C305.694+328.728+305.681+328.742+305.688+328.75C305.842+328.74+305.923+328.688+306.094+328.688C306.523+328.688+306.914+328.883+307.188+329.188C308.796+329.182+310.165+329.196+313.188+329.125C315.786+329.064+316.952+329.056+318.406+329.031C318.63+328.892+318.847+328.719+319.125+328.719C319.806+328.719+320.519+328.684+321.281+328.656C322.396+328.615+323.299+328.597+325.312+328.469C328.484+328.266+329.886+328.156+331.656+328.156C332.081+328.156+332.446+328.357+332.719+328.656C333.766+328.556+334.579+328.438+336.188+328.406C339.704+328.336+340.862+328.472+341.562+329C341.646+327.625+341.773+326.243+341.781+324.844C342.323+244.552+290.305+178.892+225.625+178.219L195.188+177.938ZM204.688+235.188C204.86+235.161+211.917+235.206+212.094+235.188C214.307+234.949+223.069+235.746+225.094+236.281C226.781+236.727+233.721+237.762+239.312+240.656C242.655+242.65+252.898+249.472+254.25+251.219C254.723+251.829+261.604+261.101+261.938+261.75C262.881+262.438+264.822+266.331+264.844+266.375C265.183+267.054+265.521+267.818+265.844+268.625C267.095+271.749+268.126+275.563+268.188+278.031C268.228+278.055+268.281+278.073+268.281+278.125C268.281+278.636+268.326+279.062+268.469+280.156C268.51+280.471+268.54+280.65+268.562+280.844C268.599+281.153+268.575+281.351+268.594+281.625C268.595+281.742+268.625+281.751+268.625+281.875C268.625+281.892+268.609+281.9+268.594+281.906C268.6+282.053+268.625+282.206+268.625+282.344C268.635+282.407+268.656+282.457+268.656+282.531C268.656+282.583+268.655+282.963+268.656+283.094C268.66+283.63+268.679+284.577+268.688+285.406C268.761+285.93+268.776+286.496+268.781+286.938C268.851+286.968+268.937+286.985+268.938+287.062C268.938+287.206+268.877+287.697+268.875+287.75C268.858+288.043+268.864+288.248+268.906+288.406C268.939+288.531+268.826+288.599+268.75+288.688C268.752+288.72+268.753+288.745+268.75+288.781C268.82+288.845+268.932+288.88+268.906+289C268.714+289.327+269.075+290.905+268.969+290.938C268.901+290.946+242.26+290.907+242.156+290.938C241.859+291.016+171.105+290.769+171.094+290.781C170.316+291.167+149.875+290.938+149.875+290.938C149.875+290.938+150.203+285.61+149.938+285.188C149.801+285.161+149.875+280.755+149.875+278.979C149.875+278.151+151.097+272.946+151.25+273C151.492+273.021+152.615+269.062+154.594+265.188C156.329+261.789+158.841+258.571+160.219+256.531C162.229+253.556+164.788+251.155+166.281+249.406C167.702+247.743+171.597+244.824+175.206+242.916C176.414+242.276+182.331+239.139+189.036+237.337C195.352+235.64+202.44+235.257+204.688+235.188Z" opacity="1" fill="url(#RadialGradient)"/>
</g>
<g id="Capa 2 copy copy" vectornator:layerName="Capa 2 copy copy" visibility="hidden">
<path d="M197.594+294.438C137.228+293.894+87.6875+344.139+83.5312+408.031C87.9354+406.709+92.5125+405.785+97.3438+405.75C98.6111+405.741+99.6589+405.847+100.812+405.875C107.833+405.417+114.647+405.94+121.688+406.875C122.057+406.818+122.401+406.739+122.781+406.688C126.163+406.227+129.618+406+133.25+406.094C135.815+406.16+146.928+406.483+148.656+406.531C153.308+406.661+156.683+406.692+160.094+406.719C162.789+406.157+165.052+405.708+167.906+405.406C171.369+405.04+174.817+404.928+178.375+405.156C178.966+404.831+179.491+404.517+180.219+404.406C181.733+404.175+184.977+404.772+190.531+406.094C193.094+405.873+195.568+405.679+197.938+405.531C203.797+405.165+209.005+405.039+213.969+405.281C217.024+405.431+219.979+405.785+222.969+406.281C225.932+406.185+228.992+406.378+232.125+406.781C236.505+405.644+240.922+404.981+245.406+404.781C250.891+404.537+255.939+404.91+261.438+405.656C263.325+405.912+265.029+406.183+267.281+406.562C267.329+406.57+267.661+406.631+267.812+406.656C269.386+406.447+270.917+406.273+272.562+406.156C277.955+405.774+283.384+405.967+289.219+407.125C290.122+407.304+290.938+407.594+291.812+407.812C291.952+407.779+292.041+407.752+292.188+407.719C295.541+406.948+299.01+406.447+303.219+406.406C307.421+406.365+311.685+406.824+316+407.906C318.787+407.495+321.469+407.254+324.062+407.25C324.892+407.249+325.647+407.254+326.406+407.281C326.633+407.289+326.746+407.3+327+407.312C327.129+407.312+327.152+407.312+327.281+407.312C330.01+406.743+332.73+406.357+335.438+406.25C336.666+406.202+337.878+406.301+339.094+406.344C334.132+344.275+286.221+295.22+227.125+294.688L197.594+294.438ZM142.969+522.094C142.057+522.12+140.587+522.184+139.562+522.219C156.067+532.569+175.212+538.597+195.688+538.781L225.219+539.062C236.771+539.167+247.937+537.383+258.469+534.031C257.212+533.574+256.012+533.144+254.562+532.562C254.247+532.436+252.392+531.682+252.25+531.625C251.383+531.349+249.624+530.792+249+530.594C240.851+528.005+236.441+526.78+232.656+526.094C231.599+525.902+230.681+525.79+229.906+525.719C224.864+525.257+219.965+525.231+207.938+525.469C206.968+525.488+206.518+525.489+205.969+525.5C185.755+525.888+174.419+525.459+160.344+522.781C156.587+522.066+151.419+521.854+142.969+522.094Z" fill-rule="evenodd" fill="#051e70" opacity="0"/>
</g>
<g id="Capa 2 copy" vectornator:layerName="Capa 2 copy" visibility="hidden">
<path d="M197.812+318.906C147.053+318.461+104.637+355.877+94.4688+405.906C95.4248+405.844+96.3735+405.757+97.3438+405.75C98.6111+405.741+99.6589+405.847+100.812+405.875C107.833+405.417+114.647+405.94+121.688+406.875C122.057+406.818+122.401+406.739+122.781+406.688C126.163+406.227+129.618+406+133.25+406.094C135.815+406.16+146.928+406.483+148.656+406.531C153.308+406.661+156.683+406.692+160.094+406.719C162.789+406.157+165.052+405.708+167.906+405.406C171.369+405.04+174.817+404.928+178.375+405.156C178.966+404.831+179.491+404.517+180.219+404.406C181.733+404.175+184.977+404.772+190.531+406.094C193.094+405.873+195.568+405.679+197.938+405.531C203.797+405.165+209.005+405.039+213.969+405.281C217.024+405.431+219.979+405.785+222.969+406.281C225.932+406.185+228.992+406.378+232.125+406.781C236.505+405.644+240.922+404.981+245.406+404.781C250.891+404.537+255.939+404.91+261.438+405.656C263.325+405.912+265.029+406.183+267.281+406.562C267.329+406.57+267.661+406.631+267.812+406.656C269.386+406.447+270.917+406.273+272.562+406.156C277.955+405.774+283.384+405.967+289.219+407.125C290.122+407.304+290.938+407.594+291.812+407.812C291.952+407.779+292.041+407.752+292.188+407.719C295.541+406.948+299.01+406.447+303.219+406.406C307.421+406.365+311.685+406.824+316+407.906C318.787+407.495+321.469+407.254+324.062+407.25C324.892+407.249+325.647+407.254+326.406+407.281C326.633+407.289+326.746+407.3+327+407.312C317.381+357.425+275.674+319.599+225.125+319.156L197.812+318.906ZM142.969+522.094C142.576+522.105+141.888+522.144+141.5+522.156C157.356+532.519+176+538.637+196.062+538.812L223.375+539.062C235.153+539.166+246.46+537.15+257.062+533.5C256.253+533.194+255.49+532.935+254.562+532.562C254.247+532.436+252.392+531.682+252.25+531.625C251.383+531.349+249.624+530.792+249+530.594C240.851+528.005+236.441+526.78+232.656+526.094C231.599+525.902+230.681+525.79+229.906+525.719C224.864+525.257+219.965+525.231+207.938+525.469C206.968+525.488+206.518+525.489+205.969+525.5C185.755+525.888+174.419+525.459+160.344+522.781C156.587+522.066+151.419+521.854+142.969+522.094Z" fill-rule="evenodd" fill="#0d2777" opacity="0"/>
</g>
<g id="Capa 2 copy copy_2" vectornator:layerName="Capa 2 copy copy" visibility="hidden">
<path d="M199.031+357.531C157.996+357.238+122.324+376.867+104.312+405.75C110.142+405.582+115.921+406.07+121.875+406.844C122.183+406.797+122.466+406.73+122.781+406.688C126.163+406.227+129.618+406+133.25+406.094C135.815+406.16+146.928+406.483+148.656+406.531C153.308+406.661+156.683+406.692+160.094+406.719C162.789+406.157+165.052+405.708+167.906+405.406C171.369+405.04+174.817+404.928+178.375+405.156C178.966+404.831+179.491+404.517+180.219+404.406C181.733+404.175+184.977+404.772+190.531+406.094C193.094+405.873+195.568+405.679+197.938+405.531C203.797+405.165+209.005+405.039+213.969+405.281C217.024+405.431+219.979+405.785+222.969+406.281C225.932+406.185+228.992+406.378+232.125+406.781C236.505+405.644+240.922+404.981+245.406+404.781C250.891+404.537+255.939+404.91+261.438+405.656C263.325+405.912+265.029+406.183+267.281+406.562C267.329+406.57+267.661+406.631+267.812+406.656C269.386+406.447+270.917+406.273+272.562+406.156C277.955+405.774+283.384+405.967+289.219+407.125C290.122+407.304+290.938+407.594+291.812+407.812C291.952+407.779+292.041+407.752+292.188+407.719C295.541+406.948+299.01+406.447+303.219+406.406C307.421+406.365+311.685+406.824+316+407.906C317.588+407.672+319.071+407.643+320.594+407.531C303.225+378.242+267.854+358.013+226.688+357.719L199.031+357.531M142.969+522.094C141.355+522.14+139.496+522.216+136.938+522.312C154.008+532.572+174.779+538.684+197.25+538.844L224.906+539.062C236.964+539.149+248.537+537.447+259.375+534.375C257.786+533.81+256.349+533.279+254.562+532.562C254.247+532.436+252.392+531.682+252.25+531.625C251.383+531.349+249.624+530.792+249+530.594C240.851+528.005+236.441+526.78+232.656+526.094C231.599+525.902+230.681+525.79+229.906+525.719C224.864+525.257+219.965+525.231+207.938+525.469C206.968+525.488+206.518+525.489+205.969+525.5C185.755+525.888+174.419+525.459+160.344+522.781C156.587+522.066+151.419+521.854+142.969+522.094Z" fill-rule="evenodd" fill="#2644a3" opacity="0"/>
</g>
<g id="Capa 2 copy copy copy" vectornator:layerName="Capa 2 copy copy copy" visibility="hidden">
<path d="M195.188+383.25C164.794+383.067+137.266+391.92+117.438+406.281C118.823+406.419+120.319+406.707+121.719+406.875C122.078+406.819+122.411+406.738+122.781+406.688C126.163+406.227+129.618+406+133.25+406.094C135.815+406.16+146.928+406.483+148.656+406.531C153.308+406.661+156.683+406.692+160.094+406.719C162.789+406.157+165.052+405.708+167.906+405.406C171.369+405.04+174.817+404.928+178.375+405.156C178.966+404.831+179.491+404.517+180.219+404.406C181.733+404.175+184.977+404.772+190.531+406.094C193.094+405.873+195.568+405.679+197.938+405.531C203.797+405.165+209.005+405.039+213.969+405.281C217.024+405.431+219.979+405.785+222.969+406.281C225.932+406.185+228.992+406.378+232.125+406.781C236.505+405.644+240.922+404.981+245.406+404.781C250.891+404.537+255.939+404.91+261.438+405.656C263.325+405.912+265.029+406.183+267.281+406.562C267.329+406.57+267.661+406.631+267.812+406.656C269.386+406.447+270.917+406.273+272.562+406.156C277.955+405.774+283.384+405.967+289.219+407.125C290.122+407.304+290.938+407.594+291.812+407.812C291.952+407.779+292.041+407.752+292.188+407.719C294.465+407.195+296.889+406.871+299.469+406.656C280.035+392.509+253.231+383.586+223.375+383.406L195.188+383.25ZM142.969+522.094C141.045+522.148+139.416+522.203+135.781+522.344C132.006+522.49+130.409+522.499+128.031+522.562C146.122+532.631+168.72+538.727+193.375+538.875L221.562+539.062C234.832+539.142+247.493+537.407+259.281+534.344C257.728+533.791+256.315+533.265+254.562+532.562C254.247+532.436+252.392+531.682+252.25+531.625C251.383+531.349+249.624+530.792+249+530.594C240.851+528.005+236.441+526.78+232.656+526.094C231.599+525.902+230.681+525.79+229.906+525.719C224.864+525.257+219.965+525.231+207.938+525.469C206.968+525.488+206.518+525.489+205.969+525.5C191.162+525.784+181.127+525.593+171.281+524.438C172.963+524.782+174.737+525.073+176.25+525.562C176.481+525.637+176.564+525.832+176.438+525.969C176.312+526.105+176.012+526.137+175.781+526.062C171.046+524.531+165.93+523.85+157.156+523.25C156.433+523.201+155.983+523.158+154.531+523.062C149.395+522.725+147.035+522.547+144.281+522.219C144.08+522.195+143.819+522.119+143.625+522.094C143.366+522.1+143.234+522.086+142.969+522.094ZM149.719+522.094C151.246+522.218+152.165+522.338+154.625+522.5C156.078+522.595+156.525+522.638+157.25+522.688C159.901+522.869+161.724+523.094+163.812+523.312C162.651+523.117+161.538+523.009+160.344+522.781C157.802+522.298+154.133+522.133+149.719+522.094Z" fill-rule="evenodd" fill="#6582dc" opacity="0"/>
</g>
<g id="Sombra Capa" vectornator:layerName="Sombra Capa">
<path d="M16.4202+336.156L507.297+336.156C509.54+336.156+511.359+337.972+511.359+340.212L511.359+433.496C511.359+435.736+509.54+437.551+507.297+437.551L16.4201+437.551C14.1772+437.551+12.3589+435.736+12.3589+433.496L12.3589+340.212C12.3589+337.972+14.1772+336.156+16.4202+336.156Z" fill-rule="evenodd" fill="#a78108" opacity="1"/>
</g>
<g id="Sombra TP" vectornator:layerName="Sombra TP">
<path d="M17.791+32.671L87.7698+32.671C89.6728+32.671+91.2154+33.969+91.2154+35.571L90.1855+256.404C90.1855+256.688+89.3266+258.326+88.7689+259.953C88.7198+260.097+87.9452+262.013+87.9008+262.129C87.4187+263.387+87.2228+264.043+86.8547+265.212C86.6202+265.957+86.2657+266.992+86.0449+267.677C85.7891+268.471+84.4768+272.766+83.0773+277.22C82.1987+280.016+82.0847+281.92+81.6573+283.566C81.5744+283.885+81.5215+284.38+81.4172+284.565C81.2779+284.813+81.4443+284.835+81.3599+284.835L17.791+287.878C15.888+287.878+14.3454+286.58+14.3454+284.978L14.3454+35.571C14.3454+33.969+15.888+32.671+17.791+32.671Z" fill-rule="evenodd" fill="#a78108" opacity="1"/>
<path d="M351.796+234.774L422.516+234.774C424.214+234.774+425.591+236.257+425.591+238.086L425.591+339.888C425.591+341.717+424.214+343.199+422.516+343.199L351.796+343.199C350.098+343.199+348.721+341.717+348.721+339.888L348.721+238.086C348.721+236.257+350.098+234.774+351.796+234.774Z" fill-rule="evenodd" fill="#a78108" opacity="1"/>
<path d="M16.235+383.339L86.955+383.339C88.653+383.339+90.03+384.822+90.03+386.651L90.03+488.453C90.03+490.282+88.653+491.764+86.955+491.764L16.235+491.764C14.537+491.764+13.16+490.282+13.16+488.453L13.16+386.651C13.16+384.822+14.537+383.339+16.235+383.339Z" fill-rule="evenodd" fill="#a78108" opacity="1"/>
</g>
<g id="Capa 1" vectornator:layerName="Capa 1">
<path d="M9.1399+324.922L499.354+324.922C501.594+324.922+503.41+326.737+503.41+328.977L503.41+422.261C503.41+424.501+501.594+426.317+499.354+426.317L9.1399+426.317C6.89997+426.317+5.08414+424.501+5.08414+422.261L5.08414+328.977C5.08414+326.737+6.89998+324.922+9.1399+324.922Z" fill-rule="evenodd" fill="#ffc200" opacity="1"/>
</g>
<g id="TF" vectornator:layerName="TF">
<path d="M6.69494+22.6634L79.7215+22.6634C80.7828+22.6634+81.6432+23.9458+81.6432+25.5275L81.6495+413.306L81.6432+413.619L81.6432+479.089C81.6432+480.671+80.7829+481.954+79.7215+481.954L6.69494+481.954C5.63359+481.954+4.77319+480.671+4.77319+479.089L4.77319+25.5275C4.77319+23.9458+5.63358+22.6634+6.69494+22.6634Z" fill-rule="evenodd" fill="#ffc200" opacity="1"/>
<path d="M342.224+224.767L412.944+224.767C414.642+224.767+416.019+226.249+416.019+228.078L416.019+329.881C416.019+331.709+414.642+333.192+412.944+333.192L342.223+333.192C340.525+333.192+339.149+331.709+339.149+329.881L339.149+228.078C339.149+226.249+340.525+224.767+342.224+224.767Z" fill-rule="evenodd" fill="#ffc200" opacity="1"/>
<path d="M92.03+334.043L88.5448+343.074" fill-rule="evenodd" fill="url(#RadialGradient_2)" opacity="1"/>
</g>
</svg>
