<?xml version="1.0" encoding="UTF-8" standalone="no"?> <!-- Created with Vectornator for iOS (http://vectornator.io/) --><!DOCTYPE svg PUBLIC "-//W3C//DTD SVG 1.1//EN" "http://www.w3.org/Graphics/SVG/1.1/DTD/svg11.dtd">
<svg height="100%" style="fill-rule:evenodd;clip-rule:evenodd;stroke-linecap:round;stroke-linejoin:round;" xmlns:xlink="http://www.w3.org/1999/xlink" xmlns="http://www.w3.org/2000/svg" xml:space="preserve" width="100%" xmlns:vectornator="http://vectornator.io" version="1.1" viewBox="0 0 513.246 517.325">
<metadata>
<vectornator:setting key="DimensionsVisible" value="1"/>
<vectornator:setting key="SnapToGrid" value="0"/>
<vectornator:setting key="SnapToPoints" value="0"/>
<vectornator:setting key="GuidesVisible" value="1"/>
<vectornator:setting key="RulersVisible" value="1"/>
<vectornator:setting key="SnapToEdges" value="0"/>
<vectornator:setting key="DisplayWhiteBackground" value="0"/>
<vectornator:setting key="SnapToGuides" value="1"/>
<vectornator:setting key="GridSpacing" value="36"/>
<vectornator:setting key="Units" value="Pixels"/>
<vectornator:setting key="DynamicGuides" value="0"/>
<vectornator:setting key="New" value="1"/>
</metadata>
<defs>
<radialGradient cx="209.941" r="134.21" id="RadialGradient" gradientUnits="userSpaceOnUse" gradientTransform="matrix(1 0 0 1.0515 0 -20.868)" cy="404.129">
<stop stop-color="#26429e" offset="0"/>
<stop stop-color="#000462" offset="1"/>
</radialGradient>
<radialGradient cx="90.2874" r="1.74264" id="RadialGradient_2" gradientUnits="userSpaceOnUse" gradientTransform="matrix(1 0 0 1 0 0)" cy="338.559">
<stop stop-color="#26429e" offset="0"/>
<stop stop-color="#000462" offset="1"/>
</radialGradient>
</defs>
<g id="D" vectornator:layerName="D">
<path d="M196.188+253.936C131.507+253.263+78.6355+317.798+78.0938+398.09C78.0798+400.154+78.2147+402.169+78.3125+404.202C78.3381+404.195+78.3479+404.172+78.375+404.169C78.74+404.094+78.9446+404.131+79.2188+404.235C79.2897+404.262+79.3519+404.294+79.4375+404.333C79.4954+404.361+79.5209+404.421+79.5625+404.465C79.645+404.441+79.7162+404.393+79.8125+404.399C81.0307+404.45+81.9421+404.444+82.75+404.3C83.0563+404.246+83.3271+404.375+83.5938+404.497C83.8441+404.303+84.1143+404.119+84.4062+404.103C84.7897+404.083+85.1613+404.203+85.4688+404.497C85.4875+404.515+85.4818+404.545+85.5+404.563C85.9912+404.559+86.5495+404.57+87.1875+404.563C87.4215+404.437+87.6529+404.275+87.9375+404.3C89.4878+404.436+93.9631+404.531+94.0625+404.53C94.5849+404.539+94.647+404.58+95.0625+404.596C95.3771+404.588+95.5189+404.577+95.9688+404.563C99.2273+404.479+100.662+404.465+102.469+404.465C102.515+404.465+102.548+404.495+102.594+404.497C103.962+404.352+105.328+404.138+106.75+404.136C108.161+404.136+109.509+404.298+110.844+404.563C110.997+404.507+111.109+404.364+111.281+404.366C111.909+404.366+113.145+404.537+114.031+404.629C116.28+404.631+125.632+404.662+127.844+404.662C128.077+404.443+128.327+404.235+128.625+404.202C129.007+404.157+129.427+404.258+129.75+404.53C129.942+404.692+130.21+404.722+131.219+404.596C131.583+404.551+131.772+404.55+132+404.53C132.474+404.495+132.893+404.498+133.312+404.563C134.019+404.676+134.999+404.633+135.906+404.629C136.814+404.552+137.379+404.386+138.625+404.366C139.016+404.359+139.308+404.343+140.031+404.333C141.77+404.313+142.525+404.316+143.344+404.267C143.605+404.251+143.809+404.42+144.031+404.53C144.392+404.468+144.926+404.331+145.25+404.3C145.616+404.266+145.94+404.426+146.219+404.629C147.636+404.56+149.122+404.466+150.219+404.465C150.401+404.465+150.526+404.598+150.688+404.662C150.697+404.659+150.709+404.665+150.719+404.662C150.891+404.609+151.03+404.481+151.219+404.497C151.835+404.55+152.552+404.523+153.188+404.563C153.224+404.563+153.277+404.563+153.312+404.563C153.343+404.565+153.376+404.564+153.406+404.563C155.195+404.679+157.051+404.731+158.938+404.76C162.18+404.64+164.954+404.563+167.094+404.629C167.104+404.628+167.115+404.629+167.125+404.629C169.374+404.524+171.67+404.484+173.812+404.267C174.233+404.225+174.543+404.437+174.812+404.727C175.683+404.836+176.617+404.849+177.531+404.892C177.664+404.887+177.806+404.858+177.938+404.859C178.237+404.864+178.521+404.923+178.812+404.957C179.25+404.733+179.665+404.455+180.219+404.366C181.115+404.222+182.616+404.394+184.594+404.76C185.23+404.721+185.64+404.751+186.344+404.695C186.891+404.65+187.34+404.614+188.312+404.53C192.825+404.147+194.816+404.037+197.312+404.037C197.721+404.037+198.009+404.267+198.25+404.563C198.322+404.552+198.363+404.465+198.438+404.465C198.756+404.465+199.007+404.65+199.25+404.826L199.406+404.727C199.496+404.696+199.506+404.691+199.625+404.662C199.938+404.626+199.939+404.623+199.969+404.629C200.023+404.629+200.102+404.629+200.156+404.629C200.299+404.629+200.458+404.625+200.438+404.629C200.379+404.64+200.372+404.658+200.844+404.497C200.879+404.485+201.292+404.34+201.438+404.3C201.55+404.27+201.647+404.249+201.75+404.235C201.861+404.219+201.853+404.208+202.031+404.202C202.275+404.201+202.274+404.21+202.844+404.465C202.968+404.548+202.971+404.691+203.062+404.793C203.448+404.82+203.858+404.839+204.219+404.859C204.54+404.852+204.801+404.853+205.375+404.826C205.925+404.8+206.195+404.806+206.5+404.793C206.701+404.784+206.777+404.801+206.969+404.793C209.337+404.686+211.087+404.596+212.781+404.596C212.837+404.596+214.703+404.422+214.969+404.399C215.933+404.317+216.569+404.298+217.125+404.366C217.419+404.104+217.805+403.967+218.219+404.005C218.977+404.071+219.588+404.475+220.125+405.056C220.304+404.976+220.45+404.825+220.656+404.826C221.188+404.826+224.533+404.852+225.75+404.859C225.973+404.576+226.177+404.406+226.469+404.235C226.756+404.066+227.056+403.961+227.375+403.972C227.694+403.981+228.021+404.1+228.312+404.3C228.44+404.388+228.455+404.553+228.562+404.662C228.941+404.634+229.224+404.53+229.688+404.53C230.136+404.53+233.016+404.267+233.438+404.235C235.731+404.06+237.238+404.172+238.375+404.826C239.517+404.756+240.353+404.685+241.156+404.596C245.849+404.071+249.877+404.002+253.312+404.333C253.578+404.306+253.963+404.281+254.094+404.267C254.773+404.198+255.369+404.165+255.938+404.136C257.015+404.081+257.924+404.106+258.656+404.235C258.905+404.278+259.352+404.486+259.75+404.629C260.074+404.38+260.483+404.258+260.906+404.333C262.426+404.6+263.869+404.59+266.562+404.432C266.77+404.42+266.76+404.445+266.969+404.432C269.678+404.272+270.877+404.219+272.406+404.366C272.681+404.393+272.882+404.599+273.094+404.76C274.879+404.57+276.046+404.453+277.125+404.497C277.128+404.498+278.489+404.406+278.719+404.399C279.241+404.38+279.677+404.407+280.031+404.432C280.278+404.448+280.489+404.447+280.688+404.497C280.694+404.495+280.713+404.499+280.719+404.497C280.776+404.478+280.881+404.411+280.969+404.399C281.605+404.433+281.591+404.433+281.625+404.465C281.683+404.485+282.095+404.65+282.125+404.662C282.207+404.693+282.255+404.701+282.219+404.695C282.281+404.705+282.4+404.717+282.469+404.727C282.538+404.723+282.585+404.656+282.656+404.662C283.605+404.733+284.958+404.693+285.969+404.727C285.978+404.728+285.99+404.728+286+404.727C287.045+404.541+288.041+404.448+288.938+404.629C290.042+404.504+291.184+404.495+295.312+404.662C295.955+404.688+296.405+404.711+296.844+404.727C300.407+404.858+301.811+404.701+302.906+404.53C303.211+404.483+304.517+404.528+304.594+404.465C304.918+404.194+305.306+404.09+305.688+404.136C306.069+404.182+306.431+404.385+306.688+404.727C306.694+404.736+306.681+404.752+306.688+404.76C306.842+404.75+306.923+404.695+307.094+404.695C307.523+404.695+307.914+404.884+308.188+405.188C309.796+405.182+311.165+405.193+314.188+405.122C316.787+405.061+317.952+405.042+319.406+405.023C319.63+404.884+319.847+404.727+320.125+404.727C320.806+404.727+321.519+404.69+322.281+404.662C323.396+404.621+324.298+404.593+326.312+404.465C329.484+404.262+330.886+404.169+332.656+404.169C333.081+404.169+333.446+404.363+333.719+404.662C334.766+404.562+335.579+404.431+337.188+404.399C340.704+404.329+341.862+404.462+342.562+404.99C342.646+403.615+342.773+402.249+342.781+400.85C343.323+320.558+291.305+254.904+226.625+254.231L196.188+253.936Z" opacity="1" fill="url(#RadialGradient)"/>
</g>
<g id="Capa 2 copy copy" vectornator:layerName="Capa 2 copy copy" visibility="hidden">
<path d="M197.594+294.438C137.228+293.894+87.6875+344.139+83.5312+408.031C87.9354+406.709+92.5125+405.785+97.3438+405.75C98.6111+405.741+99.6589+405.847+100.812+405.875C107.833+405.417+114.647+405.94+121.688+406.875C122.057+406.818+122.401+406.739+122.781+406.688C126.163+406.227+129.618+406+133.25+406.094C135.815+406.16+146.928+406.483+148.656+406.531C153.308+406.661+156.683+406.692+160.094+406.719C162.789+406.157+165.052+405.708+167.906+405.406C171.369+405.04+174.817+404.928+178.375+405.156C178.966+404.831+179.491+404.517+180.219+404.406C181.733+404.175+184.977+404.772+190.531+406.094C193.094+405.873+195.568+405.679+197.938+405.531C203.797+405.165+209.005+405.039+213.969+405.281C217.024+405.431+219.979+405.785+222.969+406.281C225.932+406.185+228.992+406.378+232.125+406.781C236.505+405.644+240.922+404.981+245.406+404.781C250.891+404.537+255.939+404.91+261.438+405.656C263.325+405.912+265.029+406.183+267.281+406.562C267.329+406.57+267.661+406.631+267.812+406.656C269.386+406.447+270.917+406.273+272.562+406.156C277.955+405.774+283.384+405.967+289.219+407.125C290.122+407.304+290.938+407.594+291.812+407.812C291.952+407.779+292.041+407.752+292.188+407.719C295.541+406.948+299.01+406.447+303.219+406.406C307.421+406.365+311.685+406.824+316+407.906C318.787+407.495+321.469+407.254+324.062+407.25C324.892+407.249+325.647+407.254+326.406+407.281C326.633+407.289+326.746+407.3+327+407.312C327.129+407.312+327.152+407.312+327.281+407.312C330.01+406.743+332.73+406.357+335.438+406.25C336.666+406.202+337.878+406.301+339.094+406.344C334.132+344.275+286.221+295.22+227.125+294.688L197.594+294.438ZM142.969+522.094C142.057+522.12+140.587+522.184+139.562+522.219C156.067+532.569+175.212+538.597+195.688+538.781L225.219+539.062C236.771+539.167+247.937+537.383+258.469+534.031C257.212+533.574+256.012+533.144+254.562+532.562C254.247+532.436+252.392+531.682+252.25+531.625C251.383+531.349+249.624+530.792+249+530.594C240.851+528.005+236.441+526.78+232.656+526.094C231.599+525.902+230.681+525.79+229.906+525.719C224.864+525.257+219.965+525.231+207.938+525.469C206.968+525.488+206.518+525.489+205.969+525.5C185.755+525.888+174.419+525.459+160.344+522.781C156.587+522.066+151.419+521.854+142.969+522.094Z" opacity="1" fill="#051e70"/>
<path vectornator:shadowColor="#000462" vectornator:shadowOpacity="1" vectornator:shadowRadius="10" d="M121.016+438.874" vectornator:shadowOffset="9.23088" fill="#ffc200" opacity="1" vectornator:shadowAngle="-1.10755"/>
</g>
<g id="Capa 2 copy" vectornator:layerName="Capa 2 copy" visibility="hidden">
<path d="M197.812+318.906C147.053+318.461+104.637+355.877+94.4688+405.906C95.4248+405.844+96.3735+405.757+97.3438+405.75C98.6111+405.741+99.6589+405.847+100.812+405.875C107.833+405.417+114.647+405.94+121.688+406.875C122.057+406.818+122.401+406.739+122.781+406.688C126.163+406.227+129.618+406+133.25+406.094C135.815+406.16+146.928+406.483+148.656+406.531C153.308+406.661+156.683+406.692+160.094+406.719C162.789+406.157+165.052+405.708+167.906+405.406C171.369+405.04+174.817+404.928+178.375+405.156C178.966+404.831+179.491+404.517+180.219+404.406C181.733+404.175+184.977+404.772+190.531+406.094C193.094+405.873+195.568+405.679+197.938+405.531C203.797+405.165+209.005+405.039+213.969+405.281C217.024+405.431+219.979+405.785+222.969+406.281C225.932+406.185+228.992+406.378+232.125+406.781C236.505+405.644+240.922+404.981+245.406+404.781C250.891+404.537+255.939+404.91+261.438+405.656C263.325+405.912+265.029+406.183+267.281+406.562C267.329+406.57+267.661+406.631+267.812+406.656C269.386+406.447+270.917+406.273+272.562+406.156C277.955+405.774+283.384+405.967+289.219+407.125C290.122+407.304+290.938+407.594+291.812+407.812C291.952+407.779+292.041+407.752+292.188+407.719C295.541+406.948+299.01+406.447+303.219+406.406C307.421+406.365+311.685+406.824+316+407.906C318.787+407.495+321.469+407.254+324.062+407.25C324.892+407.249+325.647+407.254+326.406+407.281C326.633+407.289+326.746+407.3+327+407.312C317.381+357.425+275.674+319.599+225.125+319.156L197.812+318.906ZM142.969+522.094C142.576+522.105+141.888+522.144+141.5+522.156C157.356+532.519+176+538.637+196.062+538.812L223.375+539.062C235.153+539.166+246.46+537.15+257.062+533.5C256.253+533.194+255.49+532.935+254.562+532.562C254.247+532.436+252.392+531.682+252.25+531.625C251.383+531.349+249.624+530.792+249+530.594C240.851+528.005+236.441+526.78+232.656+526.094C231.599+525.902+230.681+525.79+229.906+525.719C224.864+525.257+219.965+525.231+207.938+525.469C206.968+525.488+206.518+525.489+205.969+525.5C185.755+525.888+174.419+525.459+160.344+522.781C156.587+522.066+151.419+521.854+142.969+522.094Z" opacity="1" fill="#0d2777"/>
</g>
<g id="Capa 2 copy copy_2" vectornator:layerName="Capa 2 copy copy" visibility="hidden">
<path d="M199.031+357.531C157.996+357.238+122.324+376.867+104.312+405.75C110.142+405.582+115.921+406.07+121.875+406.844C122.183+406.797+122.466+406.73+122.781+406.688C126.163+406.227+129.618+406+133.25+406.094C135.815+406.16+146.928+406.483+148.656+406.531C153.308+406.661+156.683+406.692+160.094+406.719C162.789+406.157+165.052+405.708+167.906+405.406C171.369+405.04+174.817+404.928+178.375+405.156C178.966+404.831+179.491+404.517+180.219+404.406C181.733+404.175+184.977+404.772+190.531+406.094C193.094+405.873+195.568+405.679+197.938+405.531C203.797+405.165+209.005+405.039+213.969+405.281C217.024+405.431+219.979+405.785+222.969+406.281C225.932+406.185+228.992+406.378+232.125+406.781C236.505+405.644+240.922+404.981+245.406+404.781C250.891+404.537+255.939+404.91+261.438+405.656C263.325+405.912+265.029+406.183+267.281+406.562C267.329+406.57+267.661+406.631+267.812+406.656C269.386+406.447+270.917+406.273+272.562+406.156C277.955+405.774+283.384+405.967+289.219+407.125C290.122+407.304+290.938+407.594+291.812+407.812C291.952+407.779+292.041+407.752+292.188+407.719C295.541+406.948+299.01+406.447+303.219+406.406C307.421+406.365+311.685+406.824+316+407.906C317.588+407.672+319.071+407.643+320.594+407.531C303.225+378.242+267.854+358.013+226.688+357.719L199.031+357.531M142.969+522.094C141.355+522.14+139.496+522.216+136.938+522.312C154.008+532.572+174.779+538.684+197.25+538.844L224.906+539.062C236.964+539.149+248.537+537.447+259.375+534.375C257.786+533.81+256.349+533.279+254.562+532.562C254.247+532.436+252.392+531.682+252.25+531.625C251.383+531.349+249.624+530.792+249+530.594C240.851+528.005+236.441+526.78+232.656+526.094C231.599+525.902+230.681+525.79+229.906+525.719C224.864+525.257+219.965+525.231+207.938+525.469C206.968+525.488+206.518+525.489+205.969+525.5C185.755+525.888+174.419+525.459+160.344+522.781C156.587+522.066+151.419+521.854+142.969+522.094Z" opacity="1" fill="#2644a3"/>
</g>
<g id="Capa 2 copy copy copy" vectornator:layerName="Capa 2 copy copy copy" visibility="hidden">
<path d="M195.188+383.25C164.794+383.067+137.266+391.92+117.438+406.281C118.823+406.419+120.319+406.707+121.719+406.875C122.078+406.819+122.411+406.738+122.781+406.688C126.163+406.227+129.618+406+133.25+406.094C135.815+406.16+146.928+406.483+148.656+406.531C153.308+406.661+156.683+406.692+160.094+406.719C162.789+406.157+165.052+405.708+167.906+405.406C171.369+405.04+174.817+404.928+178.375+405.156C178.966+404.831+179.491+404.517+180.219+404.406C181.733+404.175+184.977+404.772+190.531+406.094C193.094+405.873+195.568+405.679+197.938+405.531C203.797+405.165+209.005+405.039+213.969+405.281C217.024+405.431+219.979+405.785+222.969+406.281C225.932+406.185+228.992+406.378+232.125+406.781C236.505+405.644+240.922+404.981+245.406+404.781C250.891+404.537+255.939+404.91+261.438+405.656C263.325+405.912+265.029+406.183+267.281+406.562C267.329+406.57+267.661+406.631+267.812+406.656C269.386+406.447+270.917+406.273+272.562+406.156C277.955+405.774+283.384+405.967+289.219+407.125C290.122+407.304+290.938+407.594+291.812+407.812C291.952+407.779+292.041+407.752+292.188+407.719C294.465+407.195+296.889+406.871+299.469+406.656C280.035+392.509+253.231+383.586+223.375+383.406L195.188+383.25ZM142.969+522.094C141.045+522.148+139.416+522.203+135.781+522.344C132.006+522.49+130.409+522.499+128.031+522.562C146.122+532.631+168.72+538.727+193.375+538.875L221.562+539.062C234.832+539.142+247.493+537.407+259.281+534.344C257.728+533.791+256.315+533.265+254.562+532.562C254.247+532.436+252.392+531.682+252.25+531.625C251.383+531.349+249.624+530.792+249+530.594C240.851+528.005+236.441+526.78+232.656+526.094C231.599+525.902+230.681+525.79+229.906+525.719C224.864+525.257+219.965+525.231+207.938+525.469C206.968+525.488+206.518+525.489+205.969+525.5C191.162+525.784+181.127+525.593+171.281+524.438C172.963+524.782+174.737+525.073+176.25+525.562C176.481+525.637+176.564+525.832+176.438+525.969C176.312+526.105+176.012+526.137+175.781+526.062C171.046+524.531+165.93+523.85+157.156+523.25C156.433+523.201+155.983+523.158+154.531+523.062C149.395+522.725+147.035+522.547+144.281+522.219C144.08+522.195+143.819+522.119+143.625+522.094C143.366+522.1+143.234+522.086+142.969+522.094ZM149.719+522.094C151.246+522.218+152.165+522.338+154.625+522.5C156.078+522.595+156.525+522.638+157.25+522.688C159.901+522.869+161.724+523.094+163.812+523.312C162.651+523.117+161.538+523.009+160.344+522.781C157.802+522.298+154.133+522.133+149.719+522.094Z" opacity="1" fill="#6582dc"/>
</g>
<g id="Sombra Capa" vectornator:layerName="Sombra Capa">
<path d="M17.4147+412.156L507.629+412.156C509.869+412.156+511.685+413.972+511.685+416.212L511.685+509.496C511.685+511.736+509.869+513.551+507.629+513.551L17.4146+513.551C15.1747+513.551+13.3589+511.736+13.3589+509.496L13.3589+416.212C13.3589+413.972+15.1747+412.156+17.4147+412.156Z" opacity="1" fill="#a78108"/>
</g>
<g id="Sombra TP" vectornator:layerName="Sombra TP">
<path d="M18.791+108.671L88.7698+108.671C90.6728+108.671+92.2154+109.969+92.2154+111.571L91.1855+332.404C91.1855+332.688+90.3266+334.326+89.7689+335.953C89.7198+336.097+88.9452+338.013+88.9008+338.129C88.4187+339.387+88.2228+340.043+87.8547+341.212C87.6202+341.957+87.2657+342.992+87.0449+343.677C86.7891+344.471+85.4768+348.766+84.0773+353.22C83.1987+356.016+83.0847+357.92+82.6573+359.566C82.5744+359.885+82.5215+360.38+82.4172+360.565C82.2779+360.813+82.4443+360.835+82.3599+360.835L18.791+363.878C16.888+363.878+15.3454+362.58+15.3454+360.978L15.3454+111.571C15.3454+109.969+16.888+108.671+18.791+108.671Z" opacity="1" fill="#a78108"/>
<path d="M352.796+310.774L423.516+310.774C425.214+310.774+426.591+312.257+426.591+314.086L426.591+415.888C426.591+417.717+425.214+419.199+423.516+419.199L352.796+419.199C351.098+419.199+349.721+417.717+349.721+415.888L349.721+314.086C349.721+312.257+351.098+310.774+352.796+310.774Z" opacity="1" fill="#a78108"/>
</g>
<g id="Capa 1" vectornator:layerName="Capa 1">
<path d="M10.1399+400.922L500.354+400.922C502.594+400.922+504.41+402.737+504.41+404.977L504.41+498.261C504.41+500.501+502.594+502.317+500.354+502.317L10.1399+502.317C7.89997+502.317+6.08414+500.501+6.08414+498.261L6.08414+404.977C6.08414+402.737+7.89998+400.922+10.1399+400.922Z" opacity="1" fill="#ffc200"/>
</g>
<g id="TF" vectornator:layerName="TF">
<path d="M7.69494+98.6634L80.7215+98.6634C81.7828+98.6634+82.6432+99.5238+82.6432+100.585L82.6495+360.756L82.6432+360.966L82.6432+404.892C82.6432+405.953+81.7829+406.814+80.7215+406.814L7.69494+406.814C6.63359+406.814+5.77319+405.953+5.77319+404.892L5.77319+100.585C5.77319+99.5238+6.63358+98.6634+7.69494+98.6634Z" opacity="1" fill="#ffc200"/>
<path d="M343.224+300.767L413.944+300.767C415.642+300.767+417.019+302.249+417.019+304.078L417.019+405.881C417.019+407.709+415.642+409.192+413.944+409.192L343.223+409.192C341.525+409.192+340.149+407.709+340.149+405.881L340.149+304.078C340.149+302.249+341.525+300.767+343.224+300.767Z" opacity="1" fill="#ffc200"/>
<path d="M92.03+334.043L88.5448+343.074" opacity="1" fill="url(#RadialGradient_2)"/>
</g>
</svg>
